<svg xmlns="http://www.w3.org/2000/svg" viewBox="0 0 500 500"><defs><clipPath id="a"><path d="M366.86 219.8s-4.73 4.1-6.62 8.83-1.58 9.47-6.31 11-7.57 0-7.57 0 3.78-9.46 6-12.62 14.5-7.21 14.5-7.21z" fill="none" stroke="#263238" stroke-linecap="round" stroke-linejoin="round"/></clipPath><clipPath id="b"><path d="M355.38 80.56s-11.86 30.71-16.59 39.23-10.73 11-17.67 13.88-26.5 15.14-28.4 19.88-4.1 18.93-6 23.66-5.68 7.25-11.36 8.83-11.67 2.53-10.72 5.36 10.09 4.74 19.24 3.48 12.62-3.79 15.46-7.58 7.57-12 9.46-12.93l1.9-1s-.32 33.76.31 37.86-2.84 18.3-9.78 35.34-1.89 28.39.32 30.6 6.62 2.21 7.57 1.26.32-13.57 2.21-21.77 12.93-30 16.09-34.39a114.86 114.86 0 006.62-11 136.58 136.58 0 01-7.88 30c-6.31 16.41-12.94 27.13-14.2 31.87s3.47 7.57 6.31 6.31 8.83-13.89 11-18.3 8.57-15.15 8.57-15.15a10.11 10.11 0 009.16-3.8c3.78-4.73 9.78-14.51 9.78-14.51s8.83-4.74 10.09-7.89 3.47-33.76 5.37-44.49 7.25-33.75 10.09-42.9 23.54-48.69 23.54-48.69" fill="#fff" stroke="#263238" stroke-linecap="round" stroke-linejoin="round"/></clipPath><clipPath id="c"><path d="M168.39 83s10.76 38.4 13 43.13 14.19 12.3 16.4 22.71 5.05 14.83 7.57 22.72 4.74 7.89.95 14.51-4.42 10.73-1.89 14.83 15.46 9.46 13.88 12.62-3.16 4.1-4.42 4.1h-1.26s2.84 10.41 1.26 14.2-5.36 6.31-6.62 4.41-3.47-4.73-3.47-4.73 2.52 5.05-.63 5.68-3.79-.31-8.52-2.52-15.46-4.42-15.46-4.42-12.62 5-16.72 6.31-9.15-.32-9.15-.32-13.57 5.37-15.78 1-3.78-22.71-4.73-26.18-4.1-6.31-3.47-11.68 2.21-8.52 2.53-10.72 8.51-42.28 8.51-51.11-15.45-53-15.45-53" fill="#fff" stroke="#263238" stroke-linecap="round" stroke-linejoin="round"/></clipPath></defs><rect x="215.84" y="223.45" width="148.28" height="70.04" rx="5.49" transform="rotate(90 289.985 258.475)" opacity=".2"/><rect x="212.91" y="221.69" width="148.28" height="70.04" rx="5.49" transform="rotate(90 287.045 256.715)" fill="#b5b5b5" stroke="#263238" stroke-linecap="round" stroke-linejoin="round"/><path d="M316.58 182.57h-59.07a5.48 5.48 0 00-5.48 5.49v3.34h70v-3.34a5.48 5.48 0 00-5.45-5.49z" fill="#90caf9" stroke="#263238" stroke-linecap="round" stroke-linejoin="round"/><path fill="#263238" stroke="#263238" stroke-linecap="round" stroke-linejoin="round" d="M256.13 198.66h44.8v73.19h-44.8z"/><path d="M252 323v2.4a5.48 5.48 0 005.48 5.49h59.07a5.48 5.48 0 005.48-5.49V323z" fill="#90caf9" stroke="#263238" stroke-linecap="round" stroke-linejoin="round"/><path fill="none" stroke="#263238" stroke-linecap="round" stroke-linejoin="round" d="M282.94 307.82h13.88v15.14h-13.88z"/><path d="M293.67 307.82a4.1 4.1 0 10-4.1 4.1 4.1 4.1 0 004.1-4.1z" fill="none" stroke="#263238" stroke-linecap="round" stroke-linejoin="round"/><path fill="#fff" stroke="#263238" stroke-linecap="round" stroke-linejoin="round" d="M288.31 303.72v-31.87"/><path fill="none" stroke="#263238" stroke-linecap="round" stroke-linejoin="round" d="M256.13 281.32h12.93v16.41h-12.93z"/><path fill="#263238" stroke="#263238" stroke-linecap="round" stroke-linejoin="round" d="M289.88 322.96h12.62v7.89h-12.62z"/><path fill="#90caf9" d="M286.9 214.89h-6.71l-7.86 18.17H278l-6.67 17.83 15.34-22.5h-6l6.23-13.5z"/><path d="M161.55 341.34h10.29v70h-10.29a5.48 5.48 0 01-5.48-5.48v-59.03a5.48 5.48 0 015.48-5.49z" opacity=".2"/><path d="M159.71 339.81H170v70h-10.29a5.48 5.48 0 01-5.48-5.49v-59.03a5.48 5.48 0 015.48-5.48z" fill="#90caf9" stroke="#263238" stroke-linecap="round" stroke-linejoin="round"/><path d="M361.86 341.57h-10.29v30.14a6 6 0 110 9.76v30.14h10.29a5.49 5.49 0 005.49-5.49v-59.06a5.49 5.49 0 00-5.49-5.49z" opacity=".2"/><path d="M360.1 339.81h-10.29V370a6 6 0 110 9.76v30.14h10.29a5.48 5.48 0 005.48-5.49v-59.12a5.48 5.48 0 00-5.48-5.48z" fill="#90caf9" stroke="#263238" stroke-linecap="round" stroke-linejoin="round"/><rect x="188.35" y="342.16" width="148.28" height="70.04" rx="5.49" opacity=".2"/><rect x="184.83" y="339.81" width="148.28" height="70.04" rx="5.49" fill="#263238" stroke="#263238" stroke-linecap="round" stroke-linejoin="round"/><rect x="186.54" y="341.38" width="144.86" height="66.9" rx="5.49" fill="#90caf9" stroke="#263238" stroke-linecap="round" stroke-linejoin="round"/><path d="M197 343.91h98.83v62.47h0H197a5.91 5.91 0 01-5.91-5.91v-50.65a5.91 5.91 0 015.91-5.91z" fill="#b5b5b5" stroke="#263238" stroke-linecap="round" stroke-linejoin="round"/><circle cx="323.96" cy="374.51" r="4.1" fill="#263238" stroke="#263238" stroke-linecap="round" stroke-linejoin="round"/><path fill="none" stroke="#263238" stroke-linecap="round" stroke-linejoin="round" d="M299.03 394.39h2.84v11.99h-2.84zm0-18.3h2.84v11.99h-2.84z"/><path d="M221.63 280.32h-28v-1.53a1.5 1.5 0 00-3 0v24a1.5 1.5 0 003 0v-2.15h28a3.64 3.64 0 003.63-3.64v-13a3.64 3.64 0 00-3.63-3.68zm-28 2h19v16.3h-19zM223.26 297a1.64 1.64 0 01-1.63 1.64h-7.09v-16.3h7.09a1.63 1.63 0 011.63 1.63z" fill="#263238"/><path fill="#90caf9" stroke="#263238" stroke-linecap="round" stroke-linejoin="round" d="M205.08 247.56h-11.73v24.93h20.5v-16.88l-8.77-8.05z"/><rect x="196.49" y="254.91" width="12.46" height="13.94" rx="2.51" fill="#fff" stroke="#263238" stroke-linecap="round" stroke-linejoin="round"/><path fill="none" stroke="#263238" stroke-linecap="round" stroke-linejoin="round" d="M202.6 255.16v13.7m-6.11-6.72h12.33m-9.34 6.6v-3.11a3.12 3.12 0 013.12-3.12h.11a3.13 3.13 0 013.13 3.12v3.22m0-13.22v3.11a3.13 3.13 0 01-3.13 3.12h-.11a3.12 3.12 0 01-3.12-3.12v-3.22"/><path d="M401.36 231.73a.5.5 0 00-.5-.5H381a.51.51 0 00-.5.5v14.67a.51.51 0 00.15.35l4.13 50.61a.17.17 0 000 .07v52.32a.48.48 0 00.18.38l2.77 17.12a.5.5 0 00.49.42h.78l.67 38.25a1.27 1.27 0 002.53 0l.66-38.26h.77a.51.51 0 00.5-.42l2.76-17.12a.49.49 0 00.19-.38v-52.31a.17.17 0 010-.07l4.13-50.61a.5.5 0 00.14-.35z" opacity=".2"/><path d="M388.39 406.67h0a.77.77 0 01-.76-.75l-.74-42.25h3l-.73 42.25a.77.77 0 01-.77.75z" fill="#fff" stroke="#263238" stroke-miterlimit="10"/><path fill="#263238" stroke="#263238" stroke-linecap="round" stroke-linejoin="round" d="M398.2 246.44h-19.59l4.16 50.88h.01v52.43h11.26v-52.43h.01l4.15-50.88z"/><path fill="#90caf9" stroke="#263238" stroke-linecap="round" stroke-linejoin="round" d="M378.49 231.73h19.83v14.66h-19.83zm12.61 135.44h-5.38l-2.8-17.34h10.97l-2.79 17.34z"/><path d="M134.82 247a.53.53 0 00-.15-.33.88.88 0 00-1-.27c-1.44.6-1.58 6.62-1.6 22.4 0 9.52 0 20.32-.77 27.42a374.89 374.89 0 01-11 55.66 76.9 76.9 0 00-2.42 11.12 78.29 78.29 0 00-2.46-11.09 373.64 373.64 0 01-11-55.66c-.75-7.1-.76-17.9-.77-27.42 0-15.78-.15-21.8-1.59-22.4a.9.9 0 00-1 .27.47.47 0 00-.14.33c0 .51-2.21 51.3 1.5 72.61 1.66 9.5 3.52 19.08 5.32 28.34 2.26 11.63 4.21 21.68 5.18 28.64 1.38 9.88 1.36 22.39 1.28 27.31a2.36 2.36 0 002.35 2.37h2.62a2.34 2.34 0 002.34-2.37c-.07-4.92-.1-17.42 1.28-27.31 1-7 2.93-17 5.19-28.64 1.79-9.26 3.65-18.84 5.31-28.34 3.71-21.34 1.55-72.13 1.53-72.64zm-16.94 124.75a3.19 3.19 0 00.1.35l-.1.09-.1-.09c.03-.1.06-.21.1-.35z" opacity=".2"/><path d="M132.13 247.28c-3-3-.75 32.75-2.5 49.25a372.77 372.77 0 01-11 55.75c-4.5 15.5-2.25 20.25-2.25 20.25l-.69.56c-.39-.33-.69-.56-.69-.56s2.25-4.75-2.25-20.25a372.77 372.77 0 01-11-55.75c-1.75-16.5.5-52.25-2.5-49.25 0 0-2.25 51 1.5 72.5s8.75 44.5 10.5 57c1.4 10 1.36 22.68 1.29 27.38a1.84 1.84 0 001.84 1.87H117a1.84 1.84 0 001.84-1.87c-.07-4.7-.1-17.4 1.29-27.38 1.75-12.5 6.75-35.5 10.5-57s1.5-72.5 1.5-72.5z" fill="#263238" stroke="#263238" stroke-linecap="round" stroke-linejoin="round"/><path d="M383.34 139.32a555.79 555.79 0 0117.89-53.17l-40.85-1.59s-11.86 30.71-16.59 39.23-10.73 11-17.67 13.88-26.5 15.14-28.4 19.88-4.1 18.93-6 23.66-5.68 7.25-11.36 8.83c-1.11.31-2.24.6-3.32.88h-.08l-1.07.28-.57.15-.37.1-.51.15-.36.11-.51.16-.3.09-.73.26-.14.06c-.19.07-.37.14-.54.22l-.23.1-.39.2-.21.11-.35.21-.15.11a3.53 3.53 0 00-.41.34 2.61 2.61 0 00-.27.33.83.83 0 00-.07.13 1.59 1.59 0 00-.12.27.88.88 0 00-.05.15 1.39 1.39 0 000 .3.65.65 0 000 .14 1.56 1.56 0 00.09.46c.94 2.84 10.09 4.74 19.24 3.48s12.62-3.79 15.46-7.58 7.57-12 9.46-12.93l1.9-1s-.32 33.76.31 37.86-2.84 18.3-9.78 35.34a43.83 43.83 0 00-3.52 17.16v.08a31 31 0 00.31 4 28 28 0 00.7 3.39c.09.32.19.64.28.94v.05c.2.62.41 1.19.62 1.7.1.23.19.45.29.65l.06.13q.14.29.27.54a.56.56 0 010 .08c.1.19.2.37.31.54v.05c.09.14.17.28.26.4l.08.12.2.27.08.09.26.29c2.21 2.21 6.62 2.21 7.57 1.26s.32-13.57 2.21-21.77 12.93-30 16.09-34.39a114.86 114.86 0 006.62-11 136.58 136.58 0 01-7.88 30c-6.31 16.41-12.94 27.13-14.2 31.87s3.47 7.57 6.31 6.31 8.83-13.89 11-18.3 8.63-14.98 8.63-14.98a10.11 10.11 0 009.16-3.8c.46-.58.95-1.23 1.46-1.92a11.93 11.93 0 005.48-.61c4.73-1.57 4.42-6.31 6.31-11a20.74 20.74 0 013.18-5.18 10.86 10.86 0 003.44-3.65c.94-2.33 2.39-19.65 3.84-32.86a213.28 213.28 0 017.63-51.66z" opacity=".2"/><g clip-path="url(#a)"><path d="M366.86 219.8s-4.73 4.1-6.62 8.83-1.58 9.47-6.31 11-7.57 0-7.57 0 3.78-9.46 6-12.62 14.5-7.21 14.5-7.21z" fill="#90caf9"/><path d="M366.86 219.8s-4.73 4.1-6.62 8.83-1.58 9.47-6.31 11-7.57 0-7.57 0 3.78-9.46 6-12.62 14.5-7.21 14.5-7.21z" fill="#fff" opacity=".5"/></g><path d="M366.86 219.8s-4.73 4.1-6.62 8.83-1.58 9.47-6.31 11-7.57 0-7.57 0 3.78-9.46 6-12.62 14.5-7.21 14.5-7.21z" fill="none" stroke="#263238" stroke-linecap="round" stroke-linejoin="round"/><path d="M355.38 80.56s-11.86 30.71-16.59 39.23-10.73 11-17.67 13.88-26.5 15.14-28.4 19.88-4.1 18.93-6 23.66-5.68 7.25-11.36 8.83-11.67 2.53-10.72 5.36 10.09 4.74 19.24 3.48 12.62-3.79 15.46-7.58 7.57-12 9.46-12.93l1.9-1s-.32 33.76.31 37.86-2.84 18.3-9.78 35.34-1.89 28.39.32 30.6 6.62 2.21 7.57 1.26.32-13.57 2.21-21.77 12.93-30 16.09-34.39a114.86 114.86 0 006.62-11 136.58 136.58 0 01-7.88 30c-6.31 16.41-12.94 27.13-14.2 31.87s3.47 7.57 6.31 6.31 8.83-13.89 11-18.3 8.57-15.15 8.57-15.15a10.11 10.11 0 009.16-3.8c3.78-4.73 9.78-14.51 9.78-14.51s8.83-4.74 10.09-7.89 3.47-33.76 5.37-44.49 7.25-33.75 10.09-42.9 23.54-48.69 23.54-48.69" fill="#fff"/><g clip-path="url(#b)"><path d="M299.35 187.3c2.84-3.78 7.57-12 9.46-12.93l1.9-1s-4.71-9.09-9.38-2.42S290 187.67 284 188.33c-4.16.47-8-.67-11.95-1.41-4.44 1.14-8.16 2.2-7.4 4.48.94 2.84 10.09 4.74 19.24 3.48s12.62-3.79 15.46-7.58zm-1.62 75.03c-.23 8.17 2.4 13.46 3.83 14.89 2.21 2.21 6.62 2.21 7.57 1.26s.32-13.57 2.21-21.77 12.93-30 16.09-34.39a114.86 114.86 0 006.62-11S326.67 225 318.67 233c-7.09 7.09-17.31 14.7-20.94 29.33z" fill="#90caf9"/><path d="M392.67 109.67a303.94 303.94 0 01-21.34 32c-14 18.66-14.66 42-16.66 52s-.67 19.33-8 30-12 19.33-12 19.33l-.62-31.72a136.58 136.58 0 01-7.88 30c-6.31 16.41-12.94 27.13-14.2 31.87s3.47 7.57 6.31 6.31 8.83-13.89 11-18.3 8.56-15.16 8.56-15.16a10.11 10.11 0 009.16-3.8c3.78-4.73 9.78-14.51 9.78-14.51s8.83-4.74 10.09-7.89 3.47-33.76 5.37-44.49 7.25-33.75 10.09-42.9c1.32-4.23 5.87-13.66 10.39-22.58z" fill="#90caf9"/><g opacity=".5" fill="#fff"><path d="M299.35 187.3c2.84-3.78 7.57-12 9.46-12.93l1.9-1s-4.71-9.09-9.38-2.42S290 187.67 284 188.33c-4.16.47-8-.67-11.95-1.41-4.44 1.14-8.16 2.2-7.4 4.48.94 2.84 10.09 4.74 19.24 3.48s12.62-3.79 15.46-7.58zm-1.62 75.03c-.23 8.17 2.4 13.46 3.83 14.89 2.21 2.21 6.62 2.21 7.57 1.26s.32-13.57 2.21-21.77 12.93-30 16.09-34.39a114.86 114.86 0 006.62-11S326.67 225 318.67 233c-7.09 7.09-17.31 14.7-20.94 29.33z"/><path d="M392.67 109.67a303.94 303.94 0 01-21.34 32c-14 18.66-14.66 42-16.66 52s-.67 19.33-8 30-12 19.33-12 19.33l-.62-31.72a136.58 136.58 0 01-7.88 30c-6.31 16.41-12.94 27.13-14.2 31.87s3.47 7.57 6.31 6.31 8.83-13.89 11-18.3 8.56-15.16 8.56-15.16a10.11 10.11 0 009.16-3.8c3.78-4.73 9.78-14.51 9.78-14.51s8.83-4.74 10.09-7.89 3.47-33.76 5.37-44.49 7.25-33.75 10.09-42.9c1.32-4.23 5.87-13.66 10.39-22.58z"/></g></g><path d="M355.38 80.56s-11.86 30.71-16.59 39.23-10.73 11-17.67 13.88-26.5 15.14-28.4 19.88-4.1 18.93-6 23.66-5.68 7.25-11.36 8.83-11.67 2.53-10.72 5.36 10.09 4.74 19.24 3.48 12.62-3.79 15.46-7.58 7.57-12 9.46-12.93l1.9-1s-.32 33.76.31 37.86-2.84 18.3-9.78 35.34-1.89 28.39.32 30.6 6.62 2.21 7.57 1.26.32-13.57 2.21-21.77 12.93-30 16.09-34.39a114.86 114.86 0 006.62-11 136.58 136.58 0 01-7.88 30c-6.31 16.41-12.94 27.13-14.2 31.87s3.47 7.57 6.31 6.31 8.83-13.89 11-18.3 8.57-15.15 8.57-15.15a10.11 10.11 0 009.16-3.8c3.78-4.73 9.78-14.51 9.78-14.51s8.83-4.74 10.09-7.89 3.47-33.76 5.37-44.49 7.25-33.75 10.09-42.9 23.54-48.69 23.54-48.69" fill="none" stroke="#263238" stroke-linecap="round" stroke-linejoin="round"/><path d="M336 206.33s2.67-1.33 3.33-6a68.17 68.17 0 00.67-8.66M337.84 246s9.78-17.66 11.36-18.61 6.62-3.79 6.94-8.2.63-9.78.63-9.78" fill="none" stroke="#263238" stroke-linecap="round" stroke-linejoin="round"/><path d="M168.39 83s10.76 38.4 13 43.13 14.19 12.3 16.4 22.71 5.05 14.83 7.57 22.72 4.74 7.89.95 14.51-4.42 10.73-1.89 14.83 15.46 9.46 13.88 12.62-3.16 4.1-4.42 4.1h-1.26s2.84 10.41 1.26 14.2-5.36 6.31-6.62 4.41-3.47-4.73-3.47-4.73 2.52 5.05-.63 5.68-3.79-.31-8.52-2.52-15.46-4.42-15.46-4.42-12.62 5-16.72 6.31-9.15-.32-9.15-.32-13.57 5.37-15.78 1-3.78-22.71-4.73-26.18-4.1-6.31-3.47-11.68 2.21-8.52 2.53-10.72 8.51-42.28 8.51-51.11-15.45-53-15.45-53" fill="#fff" stroke="#263238" stroke-linecap="round" stroke-linejoin="round"/><path d="M182 162.06s5 21.14 7.89 28.4 5.67 14.83 8.83 17.67 12.62 7.88 13.88 9.46m-52.38-31.86s20.19 29 23 33.44 11.36 4.41 13.57 6.31l6.94 6M141 193.93s8.52 10.41 15.46 20.82 7.58 12.94 11 13.88 11.67 1.58 11.67 1.58M134.35 210s14.51 19.56 15.77 22.4a7.81 7.81 0 003.16 3.78m6.62-70.65s-6.62 3.48-5.67 6.31a38.39 38.39 0 002.52 5.68m-14.51-1.26s-6 1.89-6.31 5.36a12 12 0 001.26 6.31" fill="none" stroke="#263238" stroke-linecap="round" stroke-linejoin="round"/><path fill="#fff" stroke="#263238" stroke-linecap="round" stroke-linejoin="round" d="M209.33 216.89h46.61v5.33h-46.61z"/><path d="M171.44 92.89s15.71 35.14 17.92 39.88 14.19 12.3 16.4 22.71 5.05 14.83 7.57 22.72 4.74 7.88.95 14.51-4.42 10.72-1.89 14.83 15.46 9.46 13.88 12.62-3.16 4.1-4.42 4.1h-1.26s2.84 10.41 1.26 14.19-5.36 6.31-6.62 4.42-3.47-4.73-3.47-4.73 2.52 5.05-.63 5.68-3.79-.32-8.52-2.53-15.46-4.41-15.46-4.41-12.62 5-16.72 6.31-9.15-.32-9.15-.32-13.57 5.36-15.78.95-3.78-22.72-4.73-26.19-4.1-6.31-3.47-11.67 2.21-8.52 2.53-10.73 8.51-42.27 8.51-51.11-15.45-53-15.45-53" opacity=".2"/><path d="M168.39 83s10.76 38.4 13 43.13 14.19 12.3 16.4 22.71 5.05 14.83 7.57 22.72 4.74 7.89.95 14.51-4.42 10.73-1.89 14.83 15.46 9.46 13.88 12.62-3.16 4.1-4.42 4.1h-1.26s2.84 10.41 1.26 14.2-5.36 6.31-6.62 4.41-3.47-4.73-3.47-4.73 2.52 5.05-.63 5.68-3.79-.31-8.52-2.52-15.46-4.42-15.46-4.42-12.62 5-16.72 6.31-9.15-.32-9.15-.32-13.57 5.37-15.78 1-3.78-22.71-4.73-26.18-4.1-6.31-3.47-11.68 2.21-8.52 2.53-10.72 8.51-42.28 8.51-51.11-15.45-53-15.45-53" fill="#fff"/><g clip-path="url(#c)"><path d="M162 231a74.05 74.05 0 01-11.88 1.42s.22 7.55-12.62 4.73c2.21 4.42 15.78-1 15.78-1s5.05 1.58 9.15.32 16.72-6.31 16.72-6.31 10.73 2.21 15.46 4.42 5.36 3.15 8.52 2.52.63-5.68.63-5.68 2.21 2.84 3.47 4.73 5-.63 6.62-4.41-1.26-14.2-1.26-14.2h1.26c1.26 0 2.84-1 4.42-4.1s-11.36-8.52-13.88-12.62-1.9-8.2 1.89-14.83 1.58-6.62-.95-14.51-5.36-12.3-7.57-22.72c-2-9.42-12-16.52-15.53-21.29a96.28 96.28 0 009.1 18.15c9.34 14 10 27.33 7.34 34.66s-5.34 13.34-5.34 13.34L184 173s1.33 20 4 24.67 4 10 8.67 14 11.33 8.66 6 8.66-19.42-1.16-19.42-1.16 1.42 5.16-5.92 5.16a73.8 73.8 0 01-15.33-2s6.67 7.34 0 8.67z" fill="#90caf9"/><path d="M162 231a74.05 74.05 0 01-11.88 1.42s.22 7.55-12.62 4.73c2.21 4.42 15.78-1 15.78-1s5.05 1.58 9.15.32 16.72-6.31 16.72-6.31 10.73 2.21 15.46 4.42 5.36 3.15 8.52 2.52.63-5.68.63-5.68 2.21 2.84 3.47 4.73 5-.63 6.62-4.41-1.26-14.2-1.26-14.2h1.26c1.26 0 2.84-1 4.42-4.1s-11.36-8.52-13.88-12.62-1.9-8.2 1.89-14.83 1.58-6.62-.95-14.51-5.36-12.3-7.57-22.72c-2-9.42-12-16.52-15.53-21.29a96.28 96.28 0 009.1 18.15c9.34 14 10 27.33 7.34 34.66s-5.34 13.34-5.34 13.34L184 173s1.33 20 4 24.67 4 10 8.67 14 11.33 8.66 6 8.66-19.42-1.16-19.42-1.16 1.42 5.16-5.92 5.16a73.8 73.8 0 01-15.33-2s6.67 7.34 0 8.67z" fill="#fff" opacity=".5"/></g><path d="M168.39 83s10.76 38.4 13 43.13 14.19 12.3 16.4 22.71 5.05 14.83 7.57 22.72 4.74 7.89.95 14.51-4.42 10.73-1.89 14.83 15.46 9.46 13.88 12.62-3.16 4.1-4.42 4.1h-1.26s2.84 10.41 1.26 14.2-5.36 6.31-6.62 4.41-3.47-4.73-3.47-4.73 2.52 5.05-.63 5.68-3.79-.31-8.52-2.52-15.46-4.42-15.46-4.42-12.62 5-16.72 6.31-9.15-.32-9.15-.32-13.57 5.37-15.78 1-3.78-22.71-4.73-26.18-4.1-6.31-3.47-11.68 2.21-8.52 2.53-10.72 8.51-42.28 8.51-51.11-15.45-53-15.45-53" fill="none" stroke="#263238" stroke-linecap="round" stroke-linejoin="round"/><path d="M182 162.06s5 21.14 7.89 28.4 5.67 14.83 8.83 17.67 12.62 7.88 13.88 9.46m-52.38-31.86s20.19 29 23 33.44 11.36 4.41 13.57 6.31l6.94 6M141 193.93s8.52 10.41 15.46 20.82 7.58 12.94 11 13.88 11.67 1.58 11.67 1.58M134.35 210s14.51 19.56 15.77 22.4a7.81 7.81 0 003.16 3.78m6.62-70.65s-6.62 3.48-5.67 6.31a38.39 38.39 0 002.52 5.68m-14.51-1.26s-6 1.89-6.31 5.36a12 12 0 001.26 6.31" fill="none" stroke="#263238" stroke-linecap="round" stroke-linejoin="round"/></svg>