<svg height="512" viewBox="0 0 64 64" width="512" xmlns="http://www.w3.org/2000/svg"><path d="M51 21v30a2.006 2.006 0 01-2 2H5a2.006 2.006 0 01-2-2V21z" fill="#5aaae7"/><path d="M45 30v14a1.975 1.975 0 01-1.84 1.99.808.808 0 01-.16.01H11a2.006 2.006 0 01-2-2V30a2.006 2.006 0 012-2h32a1.993 1.993 0 011.73 1.01A1.863 1.863 0 0145 30z" fill="#e6e7e8"/><path d="M45 30v14a1.975 1.975 0 01-1.84 1.99.808.808 0 01-.16.01H19l18-18h6a1.993 1.993 0 011.73 1.01A1.863 1.863 0 0145 30z" fill="#d1d3d4"/><path d="M49 3H5a2.006 2.006 0 00-2 2v7h48V5a2.006 2.006 0 00-2-2zM3 12h48v9H3z" fill="#3d9ae2"/><path d="M61 45a16 16 0 01-31.97 1c-.02-.33-.03-.66-.03-1a15.983 15.983 0 0115.73-15.99A2.437 2.437 0 0145 29a15.763 15.763 0 016 1.17A15.977 15.977 0 0161 45z" fill="#ffd422"/><path d="M52.78 34.81L51 35.7l-1.05.52-1.41 1.42 1.41 1.41L51 40.1l.36.36 1.42-1.41 1.41-2.83z" fill="#d1d3d4"/><path d="M54.19 48.54A3.93 3.93 0 0051 47.4a3.789 3.789 0 00-.66.11l-4.42-4.42-.92-.92-2.51-2.51a3.985 3.985 0 00-4.89-4.88l1.74 1.73-.7 2.13-2.13.7-1.73-1.74a3.985 3.985 0 004.88 4.89L41 43.83l2.16 2.16L45.17 48l2.34 2.34a4 4 0 00.21 2.66 3.789 3.789 0 00.82 1.19 3.942 3.942 0 003.86 1.03l-1.74-1.73.7-2.13 2.13-.7 1.73 1.74a3.942 3.942 0 00-1.03-3.86z" fill="#c6c5ca"/><path d="M45 46.83l-1.06-1.06-.35-.35L42.17 44a.976.976 0 00-1.17-.17.807.807 0 00-.24.17l-2 2-3.66 3.66a1 1 0 000 1.41l1.41 1.42h.01l.51.51.9.9a1 1 0 001.41 0l.9-.9L45 48.24a.807.807 0 00.17-.24.976.976 0 00-.17-1.17z" fill="#00ccb3"/><path d="M44 11h7v2h-7zM3 11h7v2H3zm11 0h9v2h-9zm13 0h9v2h-9z" fill="#1e81ce"/><path d="M35.799 51.777l4.243-4.243 1.414 1.414-4.243 4.243z" fill="#00b39d"/><path d="M42.87 44.707l6.363-6.363 1.414 1.414-6.363 6.363z" fill="#bcbec0"/><path d="M45 12v2a1 1 0 01-1 1h-8a1 1 0 01-1-1v-4a1 1 0 011-1h8a1 1 0 011 1z" fill="#ff9811"/><circle cx="25" cy="12" fill="#ff9811" r="3"/><circle cx="12" cy="12" fill="#ff9811" r="3"/></svg>