<svg xmlns="http://www.w3.org/2000/svg" viewBox="0 0 511.664 511.664"><path fill="#3789c9" d="M151.304 221.152l-111.76 210.56 101.488-9.36 49.12 89.296 111.76-210.544z"/><g fill="#4b9fd8"><path d="M164.104 450.352c3.136-6.736-.144-14.784-6.704-18.272l-6.432-3.424c-6.432-3.664-8.88-11.808-5.376-18.4 3.552-6.704 11.904-9.264 18.608-5.712l18.176 9.648c5.616 2.976 12.656.816 15.552-4.832l.448-.864c3.328-5.328 1.36-12.368-4.176-15.296l-54.368-28.864c-6.624-3.52-9.872-11.536-6.784-18.288 3.408-7.184 12.016-10.016 18.944-6.336l50.432 26.768c5.616 2.976 12.656.816 15.632-4.8l.288-.736.08-.16c3.216-5.888.96-13.28-4.976-16.432l-28.288-15.008c-6.624-3.52-9.872-11.536-6.736-18.368 3.376-7.104 12.016-10.016 18.944-6.336l31.248 16.592c5.84 3.104 12.816.512 15.84-5.376.048-.08.048-.08.08-.16.048-.08.048-.08.08-.16 3.184-5.808 1.424-13.04-4.432-16.128l-33.712-17.888c-6.544-3.472-9.792-11.488-6.704-18.24 3.408-7.184 12.016-10.016 18.944-6.336l83.168 44.144-111.76 210.56-30.752-55.984c1.936-1.344 3.664-3.008 4.736-5.312z"/><path d="M360.36 221.152l111.76 210.56-101.488-9.36-49.12 89.296-111.76-210.544z"/></g><path d="M347.56 450.352c-3.136-6.736.144-14.784 6.704-18.272l6.432-3.424c6.432-3.664 8.88-11.808 5.376-18.4-3.552-6.704-11.904-9.264-18.608-5.712l-18.176 9.648c-5.616 2.976-12.656.816-15.552-4.832l-.448-.864c-3.328-5.328-1.36-12.368 4.176-15.296l54.384-28.864c6.624-3.52 9.872-11.536 6.784-18.288-3.408-7.184-12.016-10.016-18.944-6.336l-50.432 26.768c-5.616 2.976-12.656.816-15.632-4.8l-.288-.736-.08-.16c-3.216-5.888-.96-13.28 4.976-16.432l28.288-15.008c6.624-3.52 9.872-11.536 6.736-18.368-3.376-7.104-12.016-10.016-18.944-6.336l-31.28 16.608c-5.84 3.104-12.816.512-15.84-5.376-.048-.08-.048-.08-.08-.16s-.048-.08-.08-.16c-3.184-5.808-1.424-13.04 4.432-16.128l33.712-17.888c6.544-3.472 9.792-11.488 6.704-18.24-3.408-7.184-12.016-10.016-18.944-6.336l-83.168 44.144 111.76 210.56 30.8-55.984c-1.968-1.36-3.696-3.024-4.768-5.328z" fill="#3789c9"/><path d="M442.472 186.64c0 16.064-16.224 29.792-20.192 44.608-4.096 15.328 2.976 35.312-4.8 48.736-7.872 13.616-28.784 17.44-39.84 28.48-11.056 11.056-14.864 31.952-28.48 39.84-13.424 7.76-33.392.688-48.736 4.8-14.816 3.968-28.544 20.192-44.608 20.192s-29.792-16.224-44.608-20.192c-15.328-4.096-35.312 2.976-48.736-4.8-13.616-7.872-17.44-28.784-28.48-39.84-11.056-11.056-31.952-14.864-39.84-28.48-7.76-13.424-.688-33.392-4.8-48.736-3.968-14.816-20.192-28.544-20.192-44.608s16.224-29.792 20.192-44.608c4.096-15.328-2.976-35.312 4.8-48.736 7.872-13.616 28.784-17.44 39.84-28.48 11.056-11.056 14.864-31.952 28.48-39.84 13.424-7.76 33.392-.688 48.736-4.8C226.04 16.224 239.768 0 255.832 0s29.792 16.224 44.608 20.192c15.328 4.096 35.312-2.976 48.736 4.8 13.616 7.872 17.44 28.784 28.48 39.84 11.056 11.056 31.952 14.864 39.84 28.48 7.76 13.424.688 33.392 4.8 48.736 3.952 14.8 20.176 28.528 20.176 44.592z" fill="#ffdb70"/><path d="M280.376 166.096H166.872c-8.832 0-16.064-7.232-16.064-16.064l.128-1.104v-.24c-.128-9.312 7.488-16.928 16.8-16.928h78.672c10.432 0 19.616-7.728 20.24-18.144.496-10.912-8.224-20.112-19.136-20.112h-83.328c-9.2 0-16.064-7.728-15.952-16.928v-.48c-.128-9.2 6.752-16.928 15.952-16.928h87.2c10.304 0 19.504-7.728 20.112-18.032.496-11.04-8.224-20.112-19.136-20.112h-45.792c-14.56 1.952-31.968-3.04-44.08 3.968-13.616 7.872-17.424 28.784-28.48 39.84s-31.952 14.864-39.84 28.48c-7.76 13.424-.704 33.392-4.8 48.736-3.968 14.816-20.192 28.544-20.192 44.608s16.224 29.792 20.192 44.608c4.096 15.328-2.976 35.312 4.8 48.736 7.872 13.616 28.784 17.44 39.84 28.48 11.056 11.056 14.864 31.952 28.48 39.84 12.112 7.008 29.52 2.016 44.08 3.968h63.024c10.304 0 19.504-7.728 20.112-18.032.496-11.04-8.224-20.112-19.136-20.112l-92.24-.016c-10.88 0-19.632-9.104-19.056-20.112.544-10.32 9.808-18.064 20.144-18.064h35.76c10.288-.304 18.576-8.72 18.576-19.072 0-10.544-8.592-19.136-19.136-19.136h-54.208c-8.832 0-16.064-7.232-15.936-16.064v-1.376c-.608-8.704 6.384-16.064 15.088-16.064h119.712c10.416 0 19.616-7.728 20.24-18.032.48-11.04-8.224-20.112-19.136-20.112z" opacity=".25" fill="#fff"/><path d="M255.832 319.936c-73.504 0-133.296-59.808-133.296-133.296S182.328 53.344 255.832 53.344s133.296 59.808 133.296 133.296-59.792 133.296-133.296 133.296z" fill="#ec9922"/><path d="M389.128 186.64c0-70.912-55.712-128.912-125.648-132.912h-12.416c-8.192 0-15.504 6.144-16 14.336-.384 8.768 6.528 16 15.216 16l73.344.016c8.656 0 15.616 7.232 15.152 16-.432 8.208-7.792 14.368-16.016 14.368h-28.432c-8.176.24-14.784 6.928-14.784 15.168 0 8.384 6.832 15.216 15.216 15.216h43.104c7.024 0 12.768 5.76 12.672 12.768v1.072c.48 6.928-5.072 12.768-12 12.768h-95.184c-8.288 0-15.6 6.144-16.096 14.336-.384 8.768 6.528 16 15.216 16h90.24c7.024 0 12.768 5.76 12.768 12.768l-.096.88v.192c.096 7.408-5.952 13.456-13.36 13.456h-62.56c-8.288 0-15.6 6.144-16.096 14.432-.384 8.672 6.528 16 15.216 16h66.256c7.312 0 12.768 6.144 12.672 13.456v.384c.096 7.312-5.36 13.456-12.672 13.456h-69.328c-8.192 0-15.504 6.144-16 14.336-.384 8.784 6.528 16 15.216 16h18.288c60.528-12.624 106.112-66.336 106.112-130.496z" fill="#e18b26"/><path d="M343.688 158.768h-61.2l-18.912-58.208c-2.432-7.488-13.024-7.488-15.456 0l-18.912 58.208h-61.216c-7.872 0-11.136 10.064-4.768 14.688l49.52 35.984-18.912 58.208c-2.432 7.488 6.128 13.712 12.496 9.088l49.504-35.968 49.52 35.984c6.368 4.624 14.928-1.6 12.496-9.088l-18.912-58.208 49.52-35.984c6.368-4.624 3.088-14.704-4.768-14.704z" fill="#fff"/></svg>