<svg height="512" viewBox="0 0 110 110" width="512" xmlns="http://www.w3.org/2000/svg"><path d="M80.654 38.18h9.46v21.884h-9.46z" fill="#f7be56"/><path d="M101.111 54.146a9.753 9.753 0 00-2.532-1.995l-8.465-3.97h-.002c-.092.985-.534 1.929-1.288 2.568-1.95 1.652-4.886 1.665-6.85.038-.748-.62-1.2-1.527-1.32-2.49v-.009l-8.468 3.863a9.691 9.691 0 00-2.53 1.995 9.722 9.722 0 00-2.527 6.54v7.526a3.463 3.463 0 003.463 3.463h29.583a3.463 3.463 0 003.463-3.463v-7.526c0-2.418-.9-4.75-2.527-6.54z" fill="#ebf0f3"/><ellipse cx="85.384" cy="39.259" fill="#fcd462" rx="7.723" ry="10.421"/><path d="M94.204 34.271c-.615-4.487-1.61-7.048-2.519-8.36-.91-1.31-1.237-.091-1.237-.091s-.381-2.042-5.829-1.262c-5.447.78-8.223 7.859-8.828 12.019-.391 2.692.365 4.986.948 6.275.023.42.214 1.876.182 2.24-.093 1.065.698 2 1.765 2.079a1.798 1.798 0 001.931-1.792 5.482 5.482 0 00-.72-1.896c-.369-.602-.684-1.144-.684-1.144s-1.489-6.27 2.1-7.544a649.997 649.997 0 014.865-1.712c.02.535-3.1 3.226-3.1 3.226 6.585-.913 8.1-3.565 8.1-3.565s1.064 3.218.898 6.25c-.166 3.032-1.34 5.968-1.28 6.431.152 1.184 1.366 2.003 2.604 1.68.859-.225 1.455-1.008 1.522-1.894.023-.297.048-.605.078-.924.281-2.993-.182-5.528-.796-10.016z" fill="#3a556a"/><path d="M19.886 38.18h9.46v21.884h-9.46z" fill="#f7be56"/><path d="M40.344 54.146a9.753 9.753 0 00-2.532-1.995l-8.466-3.97h-.001c-.093.985-.535 1.929-1.289 2.568-1.949 1.652-4.885 1.665-6.85.038-.747-.62-1.2-1.527-1.319-2.49v-.009l-8.469 3.863a9.691 9.691 0 00-2.53 1.995 9.722 9.722 0 00-2.526 6.54v7.526a3.463 3.463 0 003.463 3.463h29.583a3.463 3.463 0 003.463-3.463v-7.526c0-2.418-.9-4.75-2.527-6.54z" fill="#44c4a1"/><path d="M32.34 39.259c0 5.755-3.458 10.42-7.724 10.42s-7.723-4.665-7.723-10.42 3.83-11.579 8.095-11.579 7.352 5.823 7.352 11.579z" fill="#fcd462"/><path d="M39.67 40.666c-1.52 2.098-4.874.882-4.667-1.7.095-1.18.087-2.525-.145-4.215-.614-4.488-1.609-7.05-2.518-8.36-.91-1.312-2.66-.571-2.66-.571s-.38-2.042-5.828-1.262c-5.447.78-8.223 7.859-8.828 12.019a10.524 10.524 0 00-.066 2.45c.224 2.52-3.07 3.801-4.596 1.782a10.781 10.781 0 01-.816-1.272s.689 16.6 11.288 8.839l-1.136-2.278c-1.04-2.197-1.252-3.76-1.252-3.76s-1.704-7.737 2.1-7.543c8.315.425 9.079-3.737 9.079-3.737s1.774 4.9 1.684 7.936c-.09 3.052-.256 4.454-.644 5.721a8.867 8.867 0 01-1.53 2.88l-.335.425c10.598 7.76 11.58-8.483 11.58-8.483a11 11 0 01-.71 1.129z" fill="#3a556a"/><path d="M61.202 57.807l-6.181 2.075-5.703-2.075V41.638h11.884z" fill="#f7be56"/><path d="M75.019 61.695a12.254 12.254 0 00-3.182-2.507l-7.654-4.194-1.252-.686-.73.143c-.015.122-.031.253-.05.391l-7.085 4.845-6.685-4.808-.054-.424-.738-.147-1.232.675-7.677 4.205a12.177 12.177 0 00-3.178 2.507 12.214 12.214 0 00-3.174 8.216v14.44a4.352 4.352 0 004.352 4.35h37.16a4.352 4.352 0 004.352-4.35V69.91c0-3.039-1.13-5.967-3.174-8.216z" fill="#27a2db"/><path d="M61.202 51.275l-4.892 6.732L60.2 62.2l2.73-7.89zm-11.925 0l4.893 6.732-3.89 4.193-2.731-7.89z" fill="#ebf0f3"/><g fill="#fcd462"><ellipse cx="64.408" cy="38.882" rx="2.348" ry="1.126" transform="rotate(-80.68 64.429 38.866)"/><ellipse cx="46.294" cy="38.882" rx="1.126" ry="2.348" transform="rotate(-4.13 45.981 38.644)"/><path d="M63.977 41.35l-.35-10.338-1.226-3.333-7.164-1.933-7.164 1.933-1.226 3.333-.35 10.339s-.408 2.512.526 4.347 1.81 2.675 3.035 3.898c1.226 1.223 2.828 1.603 5.18 1.679 2.35-.076 3.953-.456 5.178-1.68 1.226-1.222 2.102-2.06 3.036-3.897s.525-4.347.525-4.347z"/></g><path d="M54.129 63.008v15.15h1.785v-15.15c.232-3.703 1.527-4.75 1.527-4.75l-.751-.81-1.596 1.906-1.342-1.905-1.15.81s1.294 1.046 1.527 4.749z" fill="#ebf0f3"/><path d="M55.688 29.691c.427-.075 2.444-.416 4.143 0 1.698.417 2.925 2.5 2.875 2.738-.05.239-.796 1.072-.505 2.322.292 1.25.742 4.606.742 4.606s.225-2.999 1.103-2.106c.877.893.861 1.964.358 2.857s-.618 2.692-.618 2.692 2.642-3.109 2.689-4.894 1.557-1.548-.175-4.227c0 0 1.113-2.142-.664-4.464 0 0-.416-2.798-1.5-4.345-1.085-1.548-3.436-3.215-4.632-3.096-1.196.12-.98-.476-2.3-.476-1.322 0-1.54.536-2.49.774-.952.238-2.495-.774-4.362.536-1.868 1.31-1.798 1.547-2.544 2.38s.79 1.668-1.873 2.62c-2.663.952-.956 5.952-.956 5.952s-1.063 1.667-.3 2.798c.37.548.012 2.778.479 3.963.497 1.261 1.258 1.942 1.258 1.942s.305-.611.233-1.642c-.123-1.754-.53-4.26.461-3.684.98.57 1.21 3.019 1.21 3.019s.052-4.193.712-5.681c0 0-.912-1.726.523-3.334 1.435-1.607.965-2.797 2.556-2.083 1.59.714 2.862.959 3.577.833z" fill="#3a556a"/></svg>