<svg xmlns="http://www.w3.org/2000/svg" viewBox="0 0 500 500"><g stroke="#2e353a" stroke-linecap="round" stroke-linejoin="round"><path fill="none" d="M345.25 412.82h-18V88.44l18 20.93v303.45z"/><path fill="none" d="M327.42 336.44h17.66l-17.66-17.07h17.66l-17.66 17.07zm0-17.5h17.66l-17.66-17.07h17.66l-17.66 17.07zm0 52.35h17.66l-17.66-17.07h17.66l-17.66 17.07zm0-17.5h17.66l-17.66-17.07h17.66l-17.66 17.07zm0-52.35h17.66l-17.66-17.07h17.66l-17.66 17.07zm0-17.5h17.66l-17.66-17.07h17.66l-17.66 17.07zm0-17.5h17.66l-17.66-17.07h17.66l-17.66 17.07zm0-17.5h17.66l-17.66-17.07h17.66l-17.66 17.07zm0-17.5h17.66l-17.66-17.07h17.66l-17.66 17.07zm0-17.5h17.66l-17.66-17.07h17.66l-17.66 17.07zm0-17.5h17.66l-17.66-17.07h17.66l-17.66 17.07zm0-17.5h17.66l-17.66-17.07h17.66l-17.66 17.07zm0-17.5h17.66l-17.66-17.07h17.66l-17.66 17.07zm0-17.5h17.66l-17.66-17.07h17.66l-17.66 17.07zm0-17.5h17.66l-17.66-17.07h17.66l-17.66 17.07zm101.39.47l-8.72-5.49h-62.22l-7.6 5.49h78.54z"/><path fill="#2e353a" d="M278.25 126.44h152v4h-152z"/><path fill="none" d="M420.09 121.42l-92.84-32.98 30.62 32.98m-30.62-32.98l-49 38"/><path fill="#2e353a" d="M320.75 134.94h37.5v24h-37.5zm0 254.36h37.5v24h-37.5z"/><path fill="#fff" d="M328.56 139.94h21.87v7h-21.87zm101.69-9.5v43.12"/><path fill="#2e353a" d="M424.85 188.28h11.11v12.59h-11.11z"/><path fill="none" d="M424.85 188.28l5.55-15.54 5.56 15.54"/></g><path d="M282.17 386.24V364h-65.55v22.26a32.21 32.21 0 01-7 20l-2.87 3.62H292l-2.88-3.62a32.26 32.26 0 01-6.95-20.02z" fill="#fff" stroke="#2e353a" stroke-linecap="round" stroke-linejoin="round" stroke-width="1.095"/><path d="M212.59 401.83h73.61a32.18 32.18 0 01-4-15.59V364h-65.58v22.26a32.18 32.18 0 01-4.03 15.57z" style="mix-blend-mode:multiply" fill="#90caf9"/><path fill="#2e353a" stroke="#2e353a" stroke-linecap="round" stroke-linejoin="round" stroke-width="1.095" d="M216.62 367.33h65.55v9.4h-65.55z"/><rect x="117.66" y="173.4" width="263.47" height="197.6" rx="9.29" fill="#2e353a" stroke="#2e353a" stroke-linecap="round" stroke-linejoin="round" stroke-width="1.095"/><path d="M117.66 340.29h263.47v21.42a9.29 9.29 0 01-9.29 9.29H127a9.29 9.29 0 01-9.29-9.29v-21.42h0z" fill="#fff" stroke="#2e353a" stroke-linecap="round" stroke-linejoin="round" stroke-width="1.095"/><path fill="#90caf9" stroke="#2e353a" stroke-linecap="round" stroke-linejoin="round" stroke-width="1.095" d="M130.91 185.7h236.96v139.6H130.91z"/><path d="M254.25 355.65a4.86 4.86 0 10-4.86 4.85 4.85 4.85 0 004.86-4.85z" fill="#2e353a" stroke="#2e353a" stroke-linecap="round" stroke-linejoin="round" stroke-width="1.095"/><path fill="#fff" stroke="#2e353a" stroke-linecap="round" stroke-linejoin="round" stroke-width="1.095" d="M206.78 409.87h85.24v3.97h-85.24z"/><g stroke="#2e353a"><path d="M326.51 220.68a23.72 23.72 0 006.49-21.32l-14.87 14.87a4.51 4.51 0 01-6.36 0l-12.36-12.36a4.5 4.5 0 010-6.37l14.86-14.86a23.71 23.71 0 00-26.64 31.87L249.26 250l-3.7-3.71 6-6a1.67 1.67 0 000-2.34l-4.68-4.68a1.65 1.65 0 00-2.33 0l-2.34 2.34-5.07-5.06 1.95-1.95a2.21 2.21 0 000-3.12l-41.87-41.87a10.74 10.74 0 00-15.2 0l-4.28 4.28a10.73 10.73 0 000 15.19l41.87 41.88a2.21 2.21 0 003.12 0l1.95-1.95 5.06 5.07-2.33 2.33a1.65 1.65 0 000 2.34l4.67 4.68a1.67 1.67 0 002.34 0l6-6 3.64 3.64-31.82 31a23.72 23.72 0 00-31.88 26.64l14.87-14.86a4.5 4.5 0 016.37 0l12.4 12.28a4.5 4.5 0 010 6.37l-14.86 14.86a23.72 23.72 0 0026.65-31.87l31.82-31L301 311.83a8.89 8.89 0 002 9.5l10.47 10.47 12.56-12.57-10.47-10.46a8.89 8.89 0 00-9.5-2l-43.32-43.32L301.15 226a23.72 23.72 0 0025.36-5.32z" fill="#2e353a" stroke-linecap="round" stroke-linejoin="round" stroke-width="1.095"/><path d="M223.15 294.16l75.33-73.49A23.71 23.71 0 00330.35 194l-14.86 14.86a4.5 4.5 0 01-6.37 0l-12.36-12.36a4.49 4.49 0 010-6.36l14.86-14.87a23.71 23.71 0 00-26.62 31.9l-75.33 73.49a23.71 23.71 0 00-31.87 26.64l14.86-14.86a4.5 4.5 0 016.37 0l12.36 12.36a4.49 4.49 0 010 6.36L196.5 326a23.72 23.72 0 0026.65-31.87z" fill="#fff" stroke-miterlimit="10"/><path d="M217.35 286.45h0a3.08 3.08 0 010-4.35l67.73-65.89a3.09 3.09 0 014.36 0h0a3.09 3.09 0 010 4.36l-67.73 65.88a3.09 3.09 0 01-4.36 0z" fill="#fff" stroke-miterlimit="10"/><path fill="#fff" stroke-miterlimit="10" d="M232.374 240.517l5.063-5.063 73.051 73.052-5.062 5.062z"/><path d="M323.38 313.9l-12.56 12.56L300.35 316a8.89 8.89 0 010-12.57h0a8.88 8.88 0 0112.56 0zm-105.223-80.195l12.466-12.467 10.126 10.126-12.467 12.466z" fill="#fff" stroke-miterlimit="10"/><path d="M175.113 182.478l4.285-4.285a10.74 10.74 0 0115.189 0l41.875 41.875a2.2 2.2 0 010 3.111l-16.363 16.363a2.2 2.2 0 01-3.111 0l-41.875-41.875a10.74 10.74 0 010-15.189z" fill="#fff" stroke-miterlimit="10"/><rect x="223.08" y="234.98" width="27.54" height="9.92" rx="1.65" transform="rotate(-45 236.857 239.94)" fill="#fff" stroke-miterlimit="10"/><path d="M222.44 233.32l-3.44 3.45-41.12-41.12a2.44 2.44 0 010-3.45h0a2.43 2.43 0 013.45 0zm5.87-5.87l-3.46 3.45-41.12-41.12a2.44 2.44 0 010-3.45h0a2.43 2.43 0 013.45 0zm5.87-5.87l-3.46 3.42-41.12-41.09a2.44 2.44 0 010-3.45h0a2.43 2.43 0 013.45 0z" fill="#fff" stroke-miterlimit="10"/></g><path fill="#fff" stroke="#2e353a" stroke-miterlimit="10" d="M371.82 415.07h-3.33l-21.53-176.66h3.34l21.52 176.66zm26 0h-3.33l-21.53-176.66h3.34l21.52 176.66z"/><path fill="#fff" stroke="#2e353a" stroke-miterlimit="10" d="M376.51 253.05h-25.99l-.67-5.45h26l.66 5.45zm2.45 20.12h-25.99l-.66-5.45h25.99l.66 5.45zm2.46 20.12h-26l-.66-5.45h25.99l.67 5.45zm2.45 20.13h-25.99l-.67-5.45h25.99l.67 5.45zm2.45 20.12h-25.99l-.67-5.45h25.99l.67 5.45zm2.45 20.12h-25.99l-.66-5.45h25.99l.66 5.45zm2.45 20.13h-25.99l-.66-5.45h25.99l.66 5.45zm2.46 20.12h-26l-.66-5.45h25.99l.67 5.45z"/><path fill="none" stroke="#2e353a" stroke-miterlimit="10" stroke-width=".5" d="M350.12 249.74h3.4m-2.6 1.6h6.6m18.59 0h-4.8m7.2 19.39h-4.4m-20.79 1h10.2m-8.4 18.79h8.8m-8.4 1.6h4.8m23.38 18.19h-5.39m5 1.6h-9m16.83 59.83h-8.25m-18-1.5h5m11.75 1.5h-6.5m-7.75 19.25h7m-5.5 1.75h8m-16-61h2.25m22.25-.5h-8.25"/><path fill="#2e353a" stroke="#2e353a" stroke-linecap="round" stroke-linejoin="round" stroke-width="1.095" d="M176.97 309.44l-3.96 5.16-86.14-67.25 3.97-5.16 86.13 67.25z"/><path fill="#2e353a" stroke="#2e353a" stroke-linecap="round" stroke-linejoin="round" stroke-width="1.095" d="M86.87 309.44l3.97 5.16 86.13-67.25-3.96-5.16-86.14 67.25zm90.1 75.54l-2.45 6.65-87.65-68.74 2.51-6.71 87.59 68.8z"/><path fill="#2e353a" stroke="#2e353a" stroke-linecap="round" stroke-linejoin="round" stroke-width="1.095" d="M86.87 384.98l.6 7.8 89.5-69.89-3.96-5.15-86.14 67.24z"/><path fill="#2e353a" stroke="#2e353a" stroke-linecap="round" stroke-linejoin="round" stroke-width="1.095" d="M85.4 241.48h3.5v173.6h-3.5zm88.55 0h3.5v173.6h-3.5z"/><path fill="#fff" stroke="#2e353a" stroke-linecap="round" stroke-linejoin="round" stroke-width="1.095" d="M160.12 309.44l-3.97 5.16-86.13-67.25 3.96-5.16 86.14 67.25z"/><path fill="#fff" stroke="#2e353a" stroke-linecap="round" stroke-linejoin="round" stroke-width="1.095" d="M70.02 309.44l3.96 5.16 86.14-67.25-3.97-5.16-86.13 67.25zm90.1 75.54l-2.46 6.65-87.64-68.74 1.26-6.71 88.84 68.8z"/><path fill="#fff" stroke="#2e353a" stroke-linecap="round" stroke-linejoin="round" stroke-width="1.095" d="M70.02 384.98l.6 7.8 89.5-69.89-3.97-5.15-86.13 67.24z"/><path fill="#fff" stroke="#2e353a" stroke-linecap="round" stroke-linejoin="round" stroke-width="1.095" d="M68.54 241.48h3.5v173.6h-3.5zm88.55 0h3.5v173.6h-3.5z"/><path fill="#fff" stroke="#2e353a" stroke-linecap="round" stroke-linejoin="round" stroke-width="1.095" d="M64.04 239.87H165.1v5.5H64.04z"/><path fill="#2e353a" stroke="#2e353a" stroke-linecap="round" stroke-linejoin="round" stroke-width="1.095" d="M152.62 239.87h28.05v5.5h-28.05z"/><path fill="#fff" stroke="#2e353a" stroke-linecap="round" stroke-linejoin="round" stroke-width="1.095" d="M64.04 311.91H165.1v5.5H64.04z"/><path fill="#2e353a" stroke="#2e353a" stroke-linecap="round" stroke-linejoin="round" stroke-width="1.095" d="M152.62 311.91h28.05v5.5h-28.05z"/><path fill="#2e353a" stroke="#2e353a" stroke-miterlimit="10" stroke-width=".973" d="M291.03 415.07h-7.91l10.55-61.81h7.92l-10.56 61.81z"/><path fill="#fff" stroke="#2e353a" stroke-miterlimit="10" stroke-width=".973" d="M306.86 415.07h7.92l-10.56-61.81h-7.91l10.55 61.81z"/><path fill="#2e353a" stroke="#2e353a" stroke-miterlimit="10" stroke-width=".973" d="M403.35 415.07h-7.91l10.55-61.81h7.91l-10.55 61.81z"/><path fill="#fff" stroke="#2e353a" stroke-miterlimit="10" stroke-width=".973" d="M419.18 415.07h7.92l-10.56-61.81h-7.91l10.55 61.81z"/><path fill="#90caf9" stroke="#2e353a" stroke-miterlimit="10" stroke-width=".973" d="M273.75 335.39h150.97v20.97H273.75z"/><path fill="#90caf9" stroke="#2e353a" stroke-miterlimit="10" stroke-width=".973" d="M277.43 335.39H428.4v20.97H277.43z"/><path fill="#2e353a" d="M279.9 356.36h12.81l6.62-20.97h-12.81l-6.62 20.97zm50.72-20.97H317.8l-6.62 20.97H324l6.62-20.97zm93.85 0h-12.82l-6.62 20.97h12.82l6.62-20.97zm-31.29 0h-12.81l-6.62 20.97h12.81l6.62-20.97zm-31.28 0h-12.82l-6.62 20.97h12.82l6.62-20.97z"/><path fill="none" stroke="#2e353a" stroke-miterlimit="10" d="M427.57 344.7h-24.98m24.54 3.5h-3.94m-146.4-.87h24.98m-24.55-3.95h31.56"/></svg>