<svg height="512" viewBox="0 0 497 497" width="512" xmlns="http://www.w3.org/2000/svg"><path d="M94.866 355.4H78.3c-4.143 0-7.5-3.358-7.5-7.5s3.357-7.5 7.5-7.5h16.566c4.143 0 7.5 3.358 7.5 7.5s-3.357 7.5-7.5 7.5zm0-33.133H78.3c-4.143 0-7.5-3.358-7.5-7.5s3.357-7.5 7.5-7.5h16.566c4.143 0 7.5 3.358 7.5 7.5s-3.357 7.5-7.5 7.5zm295.201-57.2H410.2c8.837 0 16-7.163 16-16v-17.7c0-8.837-7.163-16-16-16h-20.133z" fill="#9ca1af"/><path d="M410.2 215.367h-20.133v.27c7.466 1.353 13.133 7.873 13.133 15.73v17.7c0 7.856-5.667 14.377-13.133 15.73v.27H410.2c8.837 0 16-7.163 16-16v-17.7c0-8.837-7.163-16-16-16z" fill="#717891"/><path d="M152.85 447.3l12.791 38.372A16.567 16.567 0 00181.358 497h125.219a16.565 16.565 0 0015.716-11.328l12.791-38.372V49.7l-12.791-38.372A16.567 16.567 0 00306.576 0H181.357a16.567 16.567 0 00-15.717 11.328L152.85 49.7z" fill="#f2f6fc"/><path d="M322.293 11.328A16.567 16.567 0 00306.576 0h-23a16.566 16.566 0 0115.716 11.328L312.083 49.7v397.6l-12.791 38.372A16.567 16.567 0 01283.576 497h23a16.566 16.566 0 0015.716-11.328l12.791-38.372V49.7z" fill="#cdd2e1"/><path d="M185.983 447.3L202.55 497h82.833l16.567-49.7V49.7L285.383 0H202.55l-16.567 49.7z" fill="#19cffc"/><path d="M359.933 431.3c0 8.837-7.163 16-16 16H144c-8.837 0-16-7.163-16-16V65.7c0-8.837 7.163-16 16-16h199.933c8.837 0 16 7.163 16 16z" fill="#cdd2e1"/><path d="M343.933 49.7h-23c8.837 0 16 7.164 16 16v365.6c0 8.837-7.163 16-16 16h23c8.837 0 16-7.163 16-16V65.7c0-8.836-7.163-16-16-16zm46.134 132.533H410.2c8.837 0 16-7.163 16-16v-17.7c0-8.837-7.163-16-16-16h-20.133z" fill="#9ca1af"/><path d="M410.2 132.533h-20.133v.27c7.466 1.353 13.133 7.873 13.133 15.73v17.7c0 7.856-5.667 14.377-13.133 15.73v.27H410.2c8.837 0 16-7.163 16-16v-17.7c0-8.836-7.163-16-16-16z" fill="#717891"/><path d="M393.067 381.033c0 18.299-14.834 33.133-33.133 33.133H128c-18.299 0-33.133-14.834-33.133-33.133V115.967c0-18.299 14.834-33.133 33.133-33.133h231.933c18.299 0 33.133 14.834 33.133 33.133v265.066z" fill="#f2f6fc"/><path d="M359.933 82.833h-23c18.299 0 33.133 14.834 33.133 33.133v265.067c0 18.299-14.834 33.133-33.133 33.133h23c18.299 0 33.133-14.834 33.133-33.133V115.967c.001-18.299-14.833-33.134-33.133-33.134z" fill="#cdd2e1"/><path d="M343.933 381.033H144c-8.837 0-16-7.163-16-16V131.967c0-8.837 7.163-16 16-16h199.933c8.837 0 16 7.163 16 16v233.067c0 8.836-7.163 15.999-16 15.999z" fill="#9ca1af"/><path d="M299.667 182.233H320.8a6 6 0 006-6V155.1a6 6 0 00-6-6h-21.133a6 6 0 00-6 6v21.133a6 6 0 006 6z" fill="#06ccab"/><path d="M243.967 230.757l-.001-.001c-16.174-16.174-42.397-16.174-58.571 0s-16.174 42.397 0 58.571l.001.001 54.329 54.329a6 6 0 008.485 0l54.329-54.329c16.174-16.174 16.174-42.397 0-58.571s-42.398-16.174-58.572 0z" fill="#19cffc"/><path d="M161.134 173.167a7.5 7.5 0 01-7.5-7.5V149.1c0-4.142 3.357-7.5 7.5-7.5s7.5 3.358 7.5 7.5v16.566a7.5 7.5 0 01-7.5 7.501zm33.133 0a7.5 7.5 0 01-7.5-7.5V149.1c0-4.142 3.357-7.5 7.5-7.5s7.5 3.358 7.5 7.5v16.566a7.5 7.5 0 01-7.5 7.501zm33.133 0a7.5 7.5 0 01-7.5-7.5V149.1c0-4.142 3.357-7.5 7.5-7.5s7.5 3.358 7.5 7.5v16.566a7.5 7.5 0 01-7.5 7.501z" fill="#06ccab"/><path d="M343.933 115.967h-23c8.837 0 16 7.163 16 16v233.067c0 8.837-7.163 16-16 16h23c8.837 0 16-7.163 16-16V131.967c0-8.837-7.163-16-16-16z" fill="#717891"/><path d="M302.539 230.757c-11.043-11.043-26.77-14.54-40.786-10.503a41.232 41.232 0 0117.786 10.503c16.174 16.174 16.174 42.397 0 58.571L232.467 336.4l7.257 7.257a6 6 0 008.485 0l54.329-54.329c16.175-16.174 16.175-42.397.001-58.571z" fill="#27ade2"/></svg>