<svg height="512" viewBox="0 0 64 64" width="512" xmlns="http://www.w3.org/2000/svg"><path d="M15.494 49.49a1.002 1.002 0 01-.971-1.242l1-3.996a1 1 0 011.94.484l-1 3.996a.997.997 0 01-.969.758zm11.992 0a1 1 0 01-.969-.758l-.998-3.996a.998.998 0 01.727-1.212.998.998 0 011.213.728l.998 3.996a.998.998 0 01-.971 1.242z" fill="#ccd1d9"/><path d="M45.488 20.5v28.99c0 1.1.9 2 2 2h14.01c1.09 0 2-.9 2-2V20.5z" fill="#545c66"/><path d="M54.498 28.5a2 2 0 110 4c-1.109 0-2-.89-2-2a2 2 0 012-2z" fill="#5d9cec"/><path d="M63.498 15.51v1.99h-18.01v-1.99c0-1.1.9-2 2-2h14.01c1.09 0 2 .9 2 2z" fill="#545c66"/><path d="M45.488 17.5h18.01v3h-18.01z" fill="#656d78"/><path d="M15.488 48.49h14a2 2 0 012 2v1h-20v-1a2 2 0 012-2z" fill="#e6e9ed"/><path d="M26.488 44.49l1 4h-12l1-4z" fill="#ccd1d9"/><path d="M1.549 40.49h39.93v2c0 1.1-.9 2-2 2H3.498c-1.1 0-2-.9-2-2v-2z" fill="#e6e9ed"/><path d="M41.479 15.51v24.98H1.498V15.51c0-1.1.9-2 2-2h35.98c1.1 0 2.001.9 2.001 2z" fill="#5d9cec"/><path d="M24.996 40.49h-5l-4.004-26.98h5zm2.002 0h-.996l-4.004-26.98h.996z" fill="#87bcf4"/><path d="M39.48 45.494H3.502c-1.654 0-3-1.346-3-3V15.51c0-1.654 1.346-3 3-3H39.48c1.654 0 3 1.346 3 3v26.984c0 1.654-1.345 3-3 3zM3.502 14.51a1 1 0 00-1 1v26.984a1 1 0 001 1H39.48c.551 0 1-.448 1-1V15.51c0-.552-.449-1-1-1z" fill="#e6e9ed"/><path d="M21.521 43.994c-.553 0-1.006-.447-1.006-1s.443-1 .994-1h.012a1 1 0 010 2z" fill="#ccd1d9"/><path d="M58.496 41.506h-8a1 1 0 110-2h8a1 1 0 110 2zm0 3h-8a1 1 0 110-2h8a1 1 0 110 2zm0 3h-8a1 1 0 110-2h8a1 1 0 110 2z" fill="#434a54"/></svg>