<svg height="512" viewBox="0 0 497 497" width="512" xmlns="http://www.w3.org/2000/svg"><path d="M422 35h-30v352l30-60c16.5 0 30-13.5 30-30V65c0-16.5-13.5-30-30-30z" fill="#3d5168"/><path d="M422 65c0-16.5-13.5-30-30-30H75c-16.5 0-30 13.5-30 30v232c0 16.5 13.5 30 30 30l173.5 60L392 327c16.5 0 30-13.5 30-30l-75-116z" fill="#57697d"/><path d="M434.44 387v75H467c16.569 0 30-13.431 30-30z" fill="#3d5168"/><path d="M78.576 402L0 432c0 16.569 13.431 30 30 30h166l52.5-47.879L301 462h133.44c16.569 0 30-13.431 30-30v-30z" fill="#57697d"/><path d="M196 402h105v60H196zm263.79-56.82A29.986 29.986 0 00432.22 327h-32.56l64.78 105H497z" fill="#a6b0bd"/><path d="M427.23 345.18l4.988 11.82-23.505 14.972L445.141 387l19.299 45H0l37.21-86.82A29.986 29.986 0 0164.78 327h334.88c12 0 22.84 7.15 27.57 18.18z" fill="#c0c8d2"/><path d="M392 65l-85 116 85 116h30V65z" fill="#1e8aff"/><path d="M75 65h317v232H75z" fill="#54a5ff"/><path d="M445.141 387l-12.923-30H64.782l-12.857 30z" fill="#57697d"/></svg>