<svg xmlns="http://www.w3.org/2000/svg" viewBox="0 0 512.001 512.001"><path d="M425.535 184.493s-1.906-14.219-9.663-24.561c-7.757-10.342-62.484-26.717-68.517-27.579s-22.408 20.253-33.181 20.253h-116.35c-10.773 0-27.148-21.115-33.181-20.253s-60.76 17.237-68.517 27.579-9.663 24.561-9.663 24.561l120.974 52.553H345.24l80.295-52.553z" fill="#363c44"/><path d="M345.24 237.046l80.295-52.553s-1.906-14.219-9.663-24.561c-5.528-7.371-34.909-17.804-53.522-23.504-7.411.853-14.489 4.14-19.976 9.627l-33.684 33.684a32.77 32.77 0 01-23.172 9.598h-59.037a32.774 32.774 0 01-23.172-9.598l-33.684-33.684c-5.488-5.488-12.565-8.774-19.976-9.627-18.613 5.7-47.994 16.133-53.522 23.504-7.756 10.342-9.663 24.561-9.663 24.561l120.974 52.553H345.24z" fill="#2e343a"/><path d="M256 216.383h29.519a32.77 32.77 0 0023.172-9.598l33.684-33.684a33.69 33.69 0 0135.622-7.734l33.784 12.632a92.1 92.1 0 0156.963 63.407l40.188 156.829c10.951 42.735-8.071 87.51-46.432 109.295a6.5 6.5 0 01-8.29-1.597l-68.746-86.1a55.152 55.152 0 00-43.101-20.74H169.639a55.157 55.157 0 00-43.101 20.74l-68.746 86.1a6.502 6.502 0 01-8.29 1.597C11.14 485.746-7.882 440.971 3.069 398.236l40.188-156.829A92.103 92.103 0 01100.22 178l33.784-12.632a33.69 33.69 0 0135.622 7.734l33.684 33.684a32.77 32.77 0 0023.172 9.598l29.518-.001" fill="#555e6b"/><g fill="#414954"><path d="M508.931 398.236l-40.188-156.829A92.1 92.1 0 00411.78 178l-33.784-12.632c-10.599-3.963-22.336-2.292-31.354 4.142l22.707 8.49a92.1 92.1 0 0156.963 63.407L466.5 398.236c8.603 33.574-1.301 68.401-24.541 92.356l12.249 15.342a6.502 6.502 0 008.291 1.597c38.361-21.785 57.383-66.56 46.432-109.295zM84.107 419.834L27.61 490.592a97.68 97.68 0 0021.891 16.939 6.5 6.5 0 008.29-1.597l68.746-86.1a55.152 55.152 0 0143.101-20.74h-42.431a55.156 55.156 0 00-43.1 20.74z"/><circle cx="128" cy="246.81" r="29.3"/><circle cx="330.34" cy="327.79" r="40.24"/><path d="M225.802 315.085H210.21a4.617 4.617 0 01-4.617-4.617v-15.592a7.326 7.326 0 00-7.326-7.326h-10.76a7.326 7.326 0 00-7.326 7.326v15.593a4.617 4.617 0 01-4.617 4.617h-15.592a7.326 7.326 0 00-7.326 7.326v10.76a7.326 7.326 0 007.326 7.326h15.592a4.617 4.617 0 014.617 4.617v15.592a7.326 7.326 0 007.326 7.326h10.76a7.326 7.326 0 007.326-7.326v-15.592a4.617 4.617 0 014.617-4.617h15.592a7.326 7.326 0 007.326-7.326v-10.76a7.326 7.326 0 00-7.326-7.327z"/><circle cx="354.94" cy="254.13" r="9.696"/><circle cx="390.81" cy="217.61" r="9.696"/><circle cx="389.06" cy="289.41" r="9.696"/><circle cx="425.2" cy="254.13" r="9.696"/></g><circle cx="128" cy="239.42" r="29.3" fill="#ffd82f"/><circle cx="330.34" cy="320.4" r="40.24" fill="#2e343a"/><path d="M225.802 307.695H210.21a4.617 4.617 0 01-4.617-4.617v-15.592a7.326 7.326 0 00-7.326-7.326h-10.76a7.326 7.326 0 00-7.326 7.326v15.593a4.617 4.617 0 01-4.617 4.617h-15.592a7.326 7.326 0 00-7.326 7.326v10.76a7.326 7.326 0 007.326 7.326h15.592a4.617 4.617 0 014.617 4.617v15.592a7.326 7.326 0 007.326 7.326h10.76a7.326 7.326 0 007.326-7.326v-15.592a4.617 4.617 0 014.617-4.617h15.592a7.326 7.326 0 007.326-7.326v-10.76a7.326 7.326 0 00-7.326-7.327z" fill="#49bc6e"/><circle cx="354.94" cy="246.74" r="9.696" fill="#ffe92f"/><circle cx="390.81" cy="210.22" r="9.696" fill="#f45735"/><circle cx="389.06" cy="282.02" r="9.696" fill="#2b84e9"/><circle cx="425.2" cy="246.74" r="9.696" fill="#49bc6e"/><circle cx="323.3" cy="308.76" r="22.263" fill="#6e7a89"/><circle cx="256" cy="184.49" r="9.696" fill="#49bc6e"/><g fill="#2b84e9"><circle cx="256" cy="106.05" r="9.696"/><path d="M213.573 65.802a7.918 7.918 0 01-5.072-14.001c28.019-23.338 68.693-23.338 96.711 0a7.917 7.917 0 011.016 11.151 7.917 7.917 0 01-11.151 1.016c-22.151-18.447-54.299-18.447-76.443 0a7.871 7.871 0 01-5.061 1.834z"/><path d="M321.664 43.973a7.892 7.892 0 01-5.233-1.978c-34.103-30.065-85.536-30.065-119.639 0a7.918 7.918 0 01-10.472-11.878c40.072-35.328 100.511-35.328 140.584 0a7.918 7.918 0 01-5.24 13.856zm-43.662 43.72a7.881 7.881 0 01-4.578-1.463c-10.037-7.131-23.527-7.132-33.564 0a7.919 7.919 0 01-9.171-12.909c15.524-11.029 36.382-11.028 51.906 0a7.918 7.918 0 01-4.593 14.372z"/></g></svg>