<svg height="512pt" viewBox="-1 0 511 512" width="512pt" xmlns="http://www.w3.org/2000/svg"><path d="M215.695 0H91.531L.5 94.895v398.41C.5 503.585 8.914 512 19.195 512h196.5c10.285 0 18.696-8.414 18.696-18.695V18.695C234.39 8.415 225.98 0 215.695 0zm0 0" fill="#b1dbfc"/><path d="M31.406 493.305V62.675L.5 94.896v398.41C.5 503.585 8.914 512 19.195 512h30.907c-10.282 0-18.696-8.414-18.696-18.695zm0 0" fill="#8cc9f9"/><path d="M196.39 51.129c0 8.875-7.195 16.066-16.07 16.066s-16.07-7.191-16.07-16.066 7.195-16.07 16.07-16.07 16.07 7.195 16.07 16.07zm0 0" fill="#60b8ff"/><path d="M93.55 0H19.196C8.915 0 .5 8.414.5 18.695v78.301zm0 0" fill="#fee55a"/><path d="M31.406 18.695C31.406 8.415 39.82 0 50.102 0H19.195C8.915 0 .5 8.414.5 18.695v78.301l30.906-32.215zm0 0" fill="#ffd301"/><path d="M155.207 222.555c10.813 0 20.707 3.902 28.375 10.367 9.844-13.508 15.672-30.137 15.672-48.129 0-45.18-36.629-81.805-81.809-81.805s-81.804 36.625-81.804 81.805c0 43.066 33.285 78.332 75.527 81.543.144-24.203 19.8-43.781 44.039-43.781zm0 0" fill="#6c7ed6"/><path d="M66.547 184.793c0-39.895 28.562-73.102 66.351-80.328a82.19 82.19 0 00-15.453-1.477c-45.18 0-81.804 36.625-81.804 81.805 0 43.066 33.285 78.332 75.527 81.543.02-2.828.312-5.594.836-8.27-26.938-13.379-45.457-41.152-45.457-73.273zm0 0" fill="#4f67d2"/><path d="M417.746 0H293.582c-10.285 0-18.695 8.414-18.695 18.695v474.61c0 10.28 8.414 18.695 18.695 18.695h196.5c10.281 0 18.695-8.414 18.695-18.695V94.895zm0 0" fill="#b1dbfc"/><path d="M305.79 493.305V18.695C305.79 8.415 314.202 0 324.487 0h-30.906c-10.281 0-18.695 8.414-18.695 18.695v474.61c0 10.28 8.414 18.695 18.695 18.695h30.906c-10.285 0-18.699-8.414-18.699-18.695zm0 0" fill="#8cc9f9"/><path d="M345.027 51.129c0 8.875-7.195 16.066-16.07 16.066s-16.066-7.191-16.066-16.066 7.191-16.07 16.066-16.07 16.07 7.195 16.07 16.07zm0 0" fill="#60b8ff"/><path d="M183.48 51.129c0-5.266 2.543-9.922 6.454-12.856a15.983 15.983 0 00-9.614-3.214c-8.875 0-16.07 7.195-16.07 16.07s7.195 16.066 16.07 16.066c3.61 0 6.934-1.203 9.614-3.215-3.91-2.93-6.454-7.59-6.454-12.851zm148.637 0c0-5.266 2.543-9.922 6.457-12.856a15.994 15.994 0 00-9.617-3.214c-8.875 0-16.066 7.195-16.066 16.07s7.191 16.066 16.066 16.066c3.613 0 6.934-1.203 9.617-3.215-3.914-2.93-6.457-7.59-6.457-12.851zm0 0" fill="#22a7ff"/><path d="M415.727 0h74.355c10.281 0 18.695 8.414 18.695 18.695v78.301zm0 0" fill="#ff656f"/><path d="M446.633 0h-30.906l93.05 96.996V64.781zm0 0" fill="#ff4756"/><path d="M354.07 222.555c-10.812 0-20.707 3.902-28.375 10.367-9.843-13.508-15.668-30.137-15.668-48.129 0-45.18 36.625-81.805 81.805-81.805 45.18 0 81.805 36.625 81.805 81.805 0 43.066-33.285 78.332-75.528 81.543-.14-24.203-19.8-43.781-44.039-43.781zm0 0" fill="#6c7ed6"/><path d="M341.184 184.793c0-39.852 28.5-73.027 66.226-80.305a82.222 82.222 0 00-15.578-1.5c-45.18 0-81.805 36.625-81.805 81.805 0 17.992 5.825 34.621 15.668 48.129a43.857 43.857 0 0124.801-10.219c-5.941-11.332-9.312-24.223-9.312-37.91zm-220.289 54.203c8.07-10.023 20.44-16.441 34.312-16.441.418 0 .832.02 1.246.03 9.477-9.776 15.32-23.1 15.32-37.792 0-30.004-24.324-54.324-54.328-54.324-30 0-54.324 24.32-54.324 54.324 0 30.004 24.32 54.324 54.324 54.324 1.16 0 2.309-.047 3.45-.12zm0 0" fill="#4f67d2"/><path d="M94.027 184.793c0-24.633 16.399-45.426 38.871-52.082a54.244 54.244 0 00-15.453-2.242c-30.004 0-54.324 24.32-54.324 54.324 0 30.004 24.32 54.324 54.324 54.324 1.16 0 2.309-.047 3.45-.117a43.643 43.643 0 014.625-4.91c-18.594-8.63-31.493-27.453-31.493-49.297zm0 0" fill="#324ccc"/><path d="M388.387 238.996c-8.074-10.023-20.442-16.441-34.317-16.441-.418 0-.832.02-1.246.03-9.476-9.776-15.316-23.1-15.316-37.792 0-30.004 24.32-54.324 54.324-54.324 30.004 0 54.324 24.32 54.324 54.324 0 30.004-24.32 54.324-54.324 54.324a53.79 53.79 0 01-3.445-.12zm0 0" fill="#4f67d2"/><path d="M364.98 184.793c0-25.258 17.239-46.484 40.59-52.57a54.385 54.385 0 00-13.738-1.754c-30.004 0-54.324 24.32-54.324 54.324 0 14.691 5.844 28.012 15.316 37.793.418-.012.828-.031 1.246-.031 13.875 0 26.243 6.418 34.317 16.441 1.14.074 2.289.121 3.445.121 4.746 0 9.348-.61 13.738-1.754-23.351-6.086-40.59-27.312-40.59-52.57zm0 0" fill="#324ccc"/><path d="M354.07 221.523c-24.855 0-45.074 20.22-45.074 45.075 0 24.855 20.219 45.074 45.074 45.074 24.856 0 45.075-20.219 45.075-45.074 0-24.856-20.22-45.075-45.075-45.075zm0 0" fill="#6c7ed6"/><path d="M339.902 266.598c0-19.426 12.356-36.024 29.621-42.344a44.85 44.85 0 00-15.453-2.73c-24.855 0-45.074 20.218-45.074 45.074 0 24.855 20.219 45.078 45.074 45.078a44.85 44.85 0 0015.453-2.73c-17.265-6.325-29.62-22.919-29.62-42.348zm0 0" fill="#4f67d2"/><path d="M446.156 392.871c0 30.004-24.32 54.324-54.324 54.324-30.004 0-54.324-24.32-54.324-54.324s24.32-54.324 54.324-54.324c30.004 0 54.324 24.32 54.324 54.324zm0 0" fill="#6c7ed6"/><g fill="#4f67d2"><path d="M368.066 392.871c0-24.695 16.485-45.527 39.047-52.133a54.343 54.343 0 00-15.281-2.191c-30.004 0-54.324 24.32-54.324 54.324s24.32 54.324 54.324 54.324c5.309 0 10.434-.773 15.281-2.191-22.562-6.606-39.047-27.438-39.047-52.133zm0 0"/><path d="M407.902 392.871c0 8.875-7.195 16.07-16.07 16.07s-16.07-7.195-16.07-16.07 7.195-16.07 16.07-16.07 16.07 7.195 16.07 16.07zM370.14 266.598c0 8.875-7.195 16.07-16.07 16.07s-16.066-7.195-16.066-16.07 7.191-16.07 16.066-16.07 16.07 7.195 16.07 16.07zm0 0"/></g><path d="M133.516 184.793c0 8.875-7.196 16.07-16.07 16.07s-16.067-7.195-16.067-16.07 7.191-16.07 16.066-16.07 16.07 7.195 16.07 16.07zm274.386-.133c0 8.875-7.195 16.07-16.07 16.07s-16.07-7.195-16.07-16.07 7.195-16.066 16.07-16.066 16.07 7.191 16.07 16.066zm0 0" fill="#324ccc"/><path d="M171.773 392.871c0 30.004-24.324 54.324-54.328 54.324s-54.324-24.32-54.324-54.324 24.32-54.324 54.324-54.324c30.004 0 54.328 24.32 54.328 54.324zm0 0" fill="#6c7ed6"/><path d="M93.684 392.871c0-24.695 16.484-45.527 39.043-52.133a54.343 54.343 0 00-15.282-2.191c-30 0-54.324 24.32-54.324 54.324s24.32 54.324 54.324 54.324c5.309 0 10.434-.773 15.282-2.191-22.563-6.606-39.043-27.438-39.043-52.133zm0 0" fill="#4f67d2"/><path d="M133.516 392.871c0 8.875-7.196 16.07-16.07 16.07s-16.067-7.195-16.067-16.07 7.191-16.07 16.066-16.07 16.07 7.195 16.07 16.07zm0 0" fill="#4f67d2"/><path d="M155.207 221.523c-24.855 0-45.074 20.22-45.074 45.075 0 24.855 20.219 45.074 45.074 45.074s45.074-20.219 45.074-45.074c0-24.856-20.219-45.075-45.074-45.075zm0 0" fill="#6c7ed6"/><path d="M141.035 266.598c0-19.426 12.36-36.024 29.625-42.344a44.867 44.867 0 00-15.453-2.73c-24.855 0-45.074 20.218-45.074 45.074 0 24.855 20.219 45.078 45.074 45.078a44.88 44.88 0 0015.453-2.73c-17.265-6.325-29.625-22.919-29.625-42.348zm0 0" fill="#4f67d2"/><path d="M171.277 266.598c0 8.875-7.195 16.07-16.07 16.07s-16.07-7.195-16.07-16.07 7.195-16.07 16.07-16.07 16.07 7.195 16.07 16.07zm0 0" fill="#4f67d2"/></svg>