<svg height="512pt" viewBox="0 0 511 512" width="512pt" xmlns="http://www.w3.org/2000/svg"><path d="M479.02 70.078l-47.364-17.117-133.277-48c-14.723-5.281-30.563-2.883-42.723 5.277-12.16-8.16-28-10.558-42.718-5.277l-133.282 48-47.36 17.117C7.34 79.04-5.62 106.558 3.34 131.52L79.656 343.2l32.16 89.28 143.84-51.84 143.84 51.84 32.16-89.28 76.32-211.68c8.962-24.961-4-52.48-28.956-61.442zm0 0" fill="#168de2"/><path d="M479.02 70.016L298.379 4.976c-14.817-5.343-30.496-2.769-42.723 5.329-12.222-8.098-27.902-10.657-42.719-5.328L32.281 70.016c-24.894 8.96-37.87 36.511-28.894 61.425l32.527 90.32 219.742-79.12 219.746 79.12 32.528-90.32c8.96-24.898-4-52.449-28.91-61.425zm0 0" fill="#bfc9d1"/><path d="M351.656 512h-192c-26.46 0-48-21.535-48-48V48c0-26.465 21.54-48 48-48h192c26.465 0 48 21.535 48 48v416c0 26.465-21.535 48-48 48zm0 0" fill="#d7dee2"/><path d="M111.656 144h288v224h-288zm0 0" fill="#40a2e7"/><path d="M239.656 64h96v32h-96zm-64 0h32v32h-32zm64 360h32v32h-32zm0 0" fill="#fff"/><path d="M351.656 480h-192c-26.46 0-48-21.535-48-48v32c0 26.465 21.54 48 48 48h192c26.465 0 48-21.535 48-48v-32c0 26.465-21.535 48-48 48zm0 0" fill="#bfc9d1"/><path d="M111.656 144h288v32h-288zm0 0" fill="#168de2"/></svg>