<svg height="512" viewBox="0 0 256 256" width="512" xmlns="http://www.w3.org/2000/svg"><path d="M43.263 167.991v-49.612c0-46.797 37.936-84.733 84.733-84.733 46.797 0 84.733 37.937 84.733 84.733v49.612h15.086v-49.612c0-55.04-44.779-99.819-99.819-99.819s-99.82 44.779-99.82 99.819v49.612z" fill="#4671c6"/><path d="M227.815 169.991h-15.086a2 2 0 01-2-2v-49.612c0-45.619-37.114-82.733-82.733-82.733S45.263 72.76 45.263 118.379v49.612a2 2 0 01-2 2H28.176a2 2 0 01-2-2v-49.612c0-56.144 45.676-101.819 101.82-101.819s101.819 45.676 101.819 101.819v49.612a2 2 0 01-2 2zm-13.086-4h11.086v-47.612c0-53.938-43.881-97.819-97.819-97.819s-97.82 43.881-97.82 97.819v47.612h11.086v-47.612c0-47.825 38.908-86.733 86.733-86.733s86.733 38.909 86.733 86.733v47.612z" fill="#3762cc"/><path d="M139.496 237.44h-23a7 7 0 01-7-7v-7.333a7 7 0 017-7h23a7 7 0 017 7v7.333a7 7 0 01-7 7z" fill="#a4c9ff"/><path d="M43.267 199.005h11.128a8.724 8.724 0 008.724-8.724v-57.506a8.724 8.724 0 00-8.724-8.724H43.267zm169.466-74.954h-11.128a8.724 8.724 0 00-8.724 8.724v57.506a8.724 8.724 0 008.724 8.724h11.128z" fill="#e0ebfc"/><circle cx="128.163" cy="122.062" fill="#e0ebfc" r="58.836"/><path d="M108.949 132.041c-.739-.576-1.765-.868-3.051-.868h-8.487c.767-.839 2.018-1.969 3.729-3.367 2.072-1.694 3.509-2.903 4.392-3.697.938-.842 1.86-2.007 2.742-3.462.928-1.531 1.398-3.251 1.398-5.114a9.298 9.298 0 00-.673-3.481 9.323 9.323 0 00-1.884-2.955 9.075 9.075 0 00-2.828-2.021c-1.588-.706-3.513-1.064-5.72-1.064-1.842 0-3.484.281-4.879.834-1.403.557-2.585 1.306-3.514 2.227a9.45 9.45 0 00-2.106 3.1c-.469 1.136-.708 2.252-.708 3.319 0 1.052.327 1.912.972 2.558.646.645 1.458.972 2.416.972 1.361 0 2.14-.603 2.555-1.109.481-.587.891-1.374 1.252-2.404.401-1.143.543-1.398.571-1.443.831-1.274 1.885-1.867 3.319-1.867a3.81 3.81 0 011.839.447c.548.293.969.691 1.287 1.217.317.525.471 1.111.471 1.792 0 .644-.162 1.321-.483 2.013-.339.73-.845 1.46-1.504 2.167-.687.737-1.566 1.486-2.593 2.213-.671.452-1.728 1.344-3.23 2.726-1.456 1.34-3.11 2.971-4.927 4.855-.516.548-.969 1.261-1.386 2.18-.431.95-.641 1.724-.641 2.366 0 1.041.39 1.954 1.159 2.714.766.757 1.81 1.141 3.102 1.141h14.946c1.182 0 2.107-.34 2.746-1.009.628-.656.946-1.463.946-2.399.002-1.06-.423-1.953-1.228-2.581zm25.225-6.463c-.738-.333-1.646-.502-2.774-.517v-14.686c0-2.902-1.501-4.566-4.119-4.566-.905 0-1.693.31-2.342.92-.503.472-1.11 1.191-1.856 2.195l-10.759 14.392-.755 1a17.24 17.24 0 00-.628.899c-.232.357-.411.71-.532 1.047a3.332 3.332 0 00-.203 1.131c0 1.301.439 2.358 1.304 3.141.835.757 2.042 1.141 3.587 1.141h9.162v2.745c0 1.273.325 2.281.964 2.994.659.736 1.561 1.125 2.606 1.125 1.057 0 1.96-.38 2.613-1.1.636-.701.958-1.717.958-3.019v-2.745h.206c1.256 0 2.207-.237 2.905-.723.554-.386 1.214-1.144 1.214-2.563.001-1.744-.843-2.491-1.551-2.811zm-15.566-.517l5.651-7.636v7.636zm49.32-18.142c-.763-.817-1.758-1.232-2.958-1.232-1.194 0-2.18.422-2.93 1.255-.722.802-1.088 1.957-1.088 3.432v7.497H150v-7.497c0-1.495-.377-2.658-1.121-3.456-.763-.817-1.758-1.232-2.958-1.232-1.226 0-2.222.426-2.959 1.265-.702.8-1.059 1.952-1.059 3.423v23.455c0 1.471.36 2.626 1.069 3.433.733.834 1.752 1.275 2.948 1.275 1.187 0 2.179-.418 2.948-1.242.75-.804 1.131-1.97 1.131-3.466v-8.979h10.952v8.979c0 1.471.36 2.627 1.07 3.433.733.834 1.752 1.275 2.948 1.275 1.187 0 2.179-.418 2.948-1.242.75-.804 1.131-1.97 1.131-3.466v-23.455c.001-1.494-.376-2.657-1.12-3.455z" fill="#6bdddd"/><path d="M183.305 137.452a3.415 3.415 0 00-3.234 2.309c-7.376 21.587-27.85 37.158-51.904 37.158-29.591 0-53.768-23.56-54.796-52.906h2.742a.898.898 0 00.704-1.455l-6.225-7.866a.898.898 0 00-1.408 0l-6.225 7.866a.898.898 0 00.704 1.455h2.866c.864 27.748 20.132 50.93 45.98 57.721l13.076 21.032c1.115 1.794 3.726 1.794 4.841 0l13.012-20.929c20.198-5.165 36.442-20.317 43.121-39.868.76-2.216-.913-4.517-3.254-4.517zM72.687 108.036a3.415 3.415 0 003.234-2.309c7.376-21.587 27.85-37.158 51.904-37.158 29.591 0 53.768 23.56 54.796 52.906h-2.742a.898.898 0 00-.704 1.455l6.225 7.866a.898.898 0 001.408 0l6.225-7.866a.898.898 0 00-.704-1.455h-2.866c-1.031-33.118-28.273-59.746-61.636-59.746-27.056 0-50.099 17.509-58.394 41.79-.759 2.216.913 4.517 3.254 4.517z" fill="#f9a7a7"/><path d="M22.73 124.052c-5.354 0-9.693 4.34-9.693 9.693v55.567c0 5.354 4.34 9.693 9.693 9.693h20.537v-74.954H22.73zm210.54 0h-20.537v74.954h20.537c5.354 0 9.693-4.34 9.693-9.693v-55.567c0-5.355-4.34-9.694-9.693-9.694z" fill="#a4c9ff"/><path d="M54.395 201.005H43.267a2 2 0 01-2-2v-74.954a2 2 0 012-2h11.127c5.913 0 10.724 4.811 10.724 10.724v57.506c.001 5.913-4.81 10.724-10.723 10.724zm-9.128-4h9.127a6.732 6.732 0 006.724-6.724v-57.506a6.732 6.732 0 00-6.724-6.724h-9.127zm167.466 4h-11.127c-5.913 0-10.724-4.811-10.724-10.724v-57.506c0-5.913 4.811-10.724 10.724-10.724h11.127a2 2 0 012 2v74.954a2 2 0 01-2 2zm-11.128-74.954a6.732 6.732 0 00-6.724 6.724v57.506a6.732 6.732 0 006.724 6.724h9.127v-70.954z" fill="#3762cc"/><path d="M43.267 201.005H22.73c-6.448 0-11.693-5.246-11.693-11.693v-55.567c0-6.448 5.246-11.693 11.693-11.693h20.537a2 2 0 012 2v74.954a2 2 0 01-2 1.999zM22.73 126.052c-4.242 0-7.693 3.451-7.693 7.693v55.567c0 4.242 3.451 7.693 7.693 7.693h18.537v-70.954H22.73zm210.54 74.953h-20.537a2 2 0 01-2-2v-74.954a2 2 0 012-2h20.537c6.448 0 11.693 5.246 11.693 11.693v55.567c0 6.449-5.245 11.694-11.693 11.694zm-18.537-4h18.537c4.242 0 7.693-3.451 7.693-7.693v-55.567c0-4.242-3.451-7.693-7.693-7.693h-18.537z" fill="#3762cc"/><path d="M218.382 199.005v11.768c0 6.065-4.935 11-11 11h-61.017c.083.432.13.877.13 1.333v7.333c0 .456-.047.901-.13 1.333h61.017c11.58 0 21-9.421 21-21v-11.768h-10z" fill="#4671c6"/><path d="M139.496 239.44h-23c-4.962 0-9-4.038-9-9v-7.333c0-4.962 4.038-9 9-9h23c4.962 0 9 4.038 9 9v7.333c0 4.962-4.038 9-9 9zm-23-21.334c-2.757 0-5 2.243-5 5v7.333c0 2.757 2.243 5 5 5h23c2.757 0 5-2.243 5-5v-7.333c0-2.757-2.243-5-5-5z" fill="#3762cc"/><path d="M207.382 233.773h-61.017a1.999 1.999 0 01-1.963-2.379c.063-.323.094-.644.094-.954v-7.333c0-.31-.032-.631-.094-.953a1.999 1.999 0 011.963-2.38h61.017c4.962 0 9-4.038 9-9v-11.768a2 2 0 012-2h10a2 2 0 012 2v11.768c0 12.682-10.318 22.999-23 22.999zm-58.886-4h58.886c10.477 0 19-8.523 19-19v-9.768h-6v9.768c0 7.168-5.832 13-13 13h-58.886z" fill="#3762cc"/></svg>