<svg height="512pt" viewBox="0 0 512 512" width="512pt" xmlns="http://www.w3.org/2000/svg"><path d="M512 256c0 141.387-114.613 256-256 256S0 397.387 0 256 114.613 0 256 0s256 114.613 256 256zm0 0" fill="#8db0ff"/><path d="M427.957 66.352c41.23 45.445 66.352 105.765 66.352 171.957 0 141.386-114.614 256-256 256-66.192 0-126.512-25.122-171.957-66.352C113.187 479.578 180.809 512 256 512c141.387 0 256-114.613 256-256 0-75.191-32.422-142.813-84.043-189.648zm0 0" fill="#669af7"/><path d="M459.969 256c0 112.648-91.32 203.969-203.969 203.969S52.031 368.649 52.031 256 143.351 52.031 256 52.031 459.969 143.351 459.969 256zm0 0" fill="#ddf5ff"/><path d="M390.273 102.473c31.403 35.879 50.442 82.851 50.442 134.273 0 112.649-91.32 203.969-203.969 203.969-51.422 0-98.394-19.04-134.273-50.442C139.859 432.984 194.777 459.97 256 459.97c112.648 0 203.969-91.32 203.969-203.969 0-61.223-26.98-116.14-69.696-153.527zm0 0" fill="#c1e9f4"/><path d="M272.648 256h-33.296V122.797c0-9.195 7.453-16.649 16.648-16.649s16.648 7.454 16.648 16.649zm0 0" fill="#636363"/><path d="M244.227 267.773l23.546-23.546 72.114 72.113c6.5 6.504 6.5 17.047 0 23.547-6.504 6.504-17.047 6.504-23.547 0zm0 0" fill="#636363"/><path d="M149.855 369.95c-2 0-3.996-.762-5.52-2.286a7.801 7.801 0 010-11.039l85.509-85.508a7.804 7.804 0 0111.035 0 7.801 7.801 0 010 11.04l-85.508 85.507a7.776 7.776 0 01-5.516 2.285zm0 0" fill="#ff6969"/><path d="M263.805 52.18v20.664c0 4.308-3.496 7.804-7.805 7.804s-7.805-3.496-7.805-7.804V52.18c2.59-.094 5.192-.149 7.805-.149s5.215.055 7.805.149zm-95.481 51.957a7.669 7.669 0 01-3.89 1.05 7.816 7.816 0 01-6.778-3.902L147.312 83.38a201.32 201.32 0 0113.52-7.828l10.356 17.93a7.797 7.797 0 01-2.864 10.656zm-64.187 64.187c-1.434 2.508-4.067 3.903-6.762 3.903a7.787 7.787 0 01-3.895-1.04l-17.93-10.355a200.35 200.35 0 017.829-13.52l17.91 10.344c3.734 2.168 5.012 6.934 2.848 10.668zM80.648 256a7.807 7.807 0 01-7.804 7.805H52.18c-.094-2.59-.149-5.192-.149-7.805s.055-5.215.149-7.805h20.664A7.807 7.807 0 0180.648 256zm20.637 98.34L83.38 364.684a200.262 200.262 0 01-7.828-13.516l17.93-10.355a7.797 7.797 0 0110.656 2.863c2.164 3.734.886 8.5-2.852 10.664zm69.903 64.18l-10.356 17.93a201.231 201.231 0 01-13.516-7.829l10.344-17.91a7.81 7.81 0 0110.664-2.852 7.802 7.802 0 012.863 10.66zm92.617 20.632v20.668c-2.59.094-5.192.149-7.805.149s-5.215-.055-7.805-.149v-20.668a7.81 7.81 0 017.805-7.804c4.309.004 7.805 3.5 7.805 7.804zm100.879-10.531a200.262 200.262 0 01-13.516 7.828l-10.355-17.93a7.797 7.797 0 012.863-10.656 7.815 7.815 0 0110.668 2.852zm71.766-77.453a200.262 200.262 0 01-7.829 13.516l-17.906-10.344c-3.738-2.164-5.02-6.93-2.852-10.664a7.793 7.793 0 0110.657-2.863zM459.969 256c0 2.613-.055 5.215-.149 7.805h-20.668c-4.304 0-7.804-3.496-7.804-7.805s3.5-7.805 7.804-7.805h20.668c.094 2.59.149 5.192.149 7.805zm-23.519-95.168l-17.93 10.356a7.787 7.787 0 01-3.895 1.039 7.787 7.787 0 01-6.762-3.903c-2.164-3.734-.886-8.5 2.852-10.664l17.906-10.344a200.262 200.262 0 017.828 13.516zm-71.766-77.453l-10.344 17.906c-1.445 2.512-4.078 3.903-6.774 3.903a7.659 7.659 0 01-3.89-1.051 7.793 7.793 0 01-2.863-10.657l10.351-17.93a199.39 199.39 0 0113.52 7.829zm0 0" fill="#636363"/><path d="M287.219 256c0 17.242-13.977 31.219-31.219 31.219S224.781 273.242 224.781 256s13.977-31.219 31.219-31.219 31.219 13.977 31.219 31.219zm0 0" fill="#8db0ff"/><path d="M273.82 230.371a31.058 31.058 0 015.594 17.824c0 17.243-13.976 31.22-31.219 31.22a31.052 31.052 0 01-17.824-5.595c5.645 8.098 15.016 13.399 25.629 13.399 17.242 0 31.219-13.977 31.219-31.219 0-10.613-5.301-19.984-13.399-25.629zm0 0" fill="#669af7"/></svg>