<svg height="640" viewBox="-31 0 479 480" width="640" xmlns="http://www.w3.org/2000/svg"><path d="M184.5 400h48v32h-48zm0 0" fill="#656665"/><path d="M304.5 480h-192c0-26.512 21.488-48 48-48h96c26.512 0 48 21.488 48 48zm-72-368h168c8.84 0 16 7.16 16 16v256c0 8.84-7.16 16-16 16h-384c-8.84 0-16-7.16-16-16V128c0-8.84 7.16-16 16-16h168" fill="#999"/><path d="M184.5 144h-152v224h352V144h-152" fill="#94cce7"/><path d="M296.5 264v-32h-17.848c-1.746-7.68-4.832-14.816-8.816-21.336L280.5 200l-24-24-10.664 10.664c-6.527-3.984-13.656-7.07-21.336-8.816V160h-32v17.848c-7.688 1.746-14.887 4.738-21.426 8.726L160.5 176l-24 24 10.574 10.574c-3.988 6.54-6.98 13.738-8.726 21.426H120.5v32h17.848c1.746 7.68 4.832 14.816 8.816 21.336L136.5 296l24 24 10.664-10.664c6.527 3.984 13.656 7.07 21.336 8.816V336h32v-17.848c7.687-1.746 14.887-4.738 21.426-8.726L256.5 320l24-24-10.574-10.574c3.988-6.54 6.98-13.738 8.726-21.426zm0 0" fill="#f8cf6a"/><path d="M232.5 224V104l32-32V32l-32-32v48h-48V0l-32 32v40l32 32v120" fill="#bab8b9"/><path d="M232.5 48h-48v-8h-16V16l-16 16v40l32 32v120h32V96l32-32V24l-16-16zm0 0" fill="#d9d7d8"/><path d="M248.5 248c0 22.09-17.91 40-40 40s-40-17.91-40-40 17.91-40 40-40 40 17.91 40 40zm0 0" fill="#fff"/></svg>